<svg width="45" height="45" viewBox="0 0 45 45" fill="none" xmlns="http://www.w3.org/2000/svg">
<path d="M22.502 3.75C32.8572 3.75 41.252 12.1447 41.252 22.5C41.252 32.8552 32.8572 41.25 22.502 41.25C12.1466 41.25 3.75195 32.8552 3.75195 22.5C3.75195 12.1447 12.1466 3.75 22.502 3.75ZM22.502 6.5625C13.6999 6.5625 6.56445 13.698 6.56445 22.5C6.56445 31.302 13.6999 38.4375 22.502 38.4375C31.304 38.4375 38.4395 31.302 38.4395 22.5C38.4395 13.698 31.304 6.5625 22.502 6.5625ZM21.8401 14.162L21.9762 14.0043C22.4756 13.5051 23.2569 13.4597 23.8074 13.8682L23.965 14.0043L31.4666 21.5059C31.9659 22.0052 32.0112 22.7865 31.6027 23.337L31.4664 23.4949L23.9636 30.9949C23.4144 31.5439 22.5239 31.5437 21.9747 30.9943C21.4756 30.495 21.4304 29.7139 21.839 29.1634L21.9751 29.0057L27.0789 23.9044L14.5319 23.9049C13.82 23.9049 13.2316 23.3758 13.1385 22.6896L13.1256 22.4987C13.1256 21.7868 13.6547 21.1984 14.3411 21.1052L14.5319 21.0924L27.0751 21.0919L21.9762 15.9931C21.4771 15.4938 21.4317 14.7126 21.8401 14.162Z" fill="#212121"/>
</svg>
