<svg width="14" height="21" viewBox="0 0 14 21" fill="none" xmlns="http://www.w3.org/2000/svg">
<path d="M4.5001 0.25C4.08444 0.25 3.71212 0.507129 3.56492 0.895852L3.33532 1.50213C2.84314 1.45295 2.38967 1.40387 2.02258 1.36265C1.74817 1.33184 1.52259 1.30549 1.3659 1.28687L1.18515 1.26518L1.12377 1.25768C0.575675 1.18981 0.0755572 1.57901 0.00768431 2.1271C-0.0601894 2.6752 0.32911 3.17455 0.877208 3.24242L0.943999 3.25059L1.12998 3.27291C1.29032 3.29196 1.52019 3.31881 1.79942 3.35016C2.35738 3.41281 3.11468 3.49369 3.90922 3.5662C4.981 3.66401 6.15583 3.75 7.0001 3.75C7.84438 3.75 9.01921 3.66401 10.091 3.5662C10.8855 3.49369 11.6428 3.41281 12.2008 3.35016C12.48 3.31881 12.7099 3.29196 12.8702 3.27291L13.0562 3.25059L13.1229 3.24244C13.671 3.17456 14.0604 2.6752 13.9925 2.1271C13.9247 1.57901 13.4253 1.18972 12.8772 1.25758L12.8151 1.26518L12.6343 1.28687C12.4776 1.30549 12.252 1.33184 11.9776 1.36265C11.6105 1.40387 11.1571 1.45295 10.6649 1.50213L10.4353 0.895852C10.2881 0.507129 9.91577 0.25 9.5001 0.25H4.5001Z" fill="#98A2B3"/>
<path d="M6.0001 10.25C6.0001 9.69771 5.55239 9.25 5.0001 9.25C4.44782 9.25 4.0001 9.69771 4.0001 10.25V15.25C4.0001 15.8023 4.44782 16.25 5.0001 16.25C5.55239 16.25 6.0001 15.8023 6.0001 15.25V10.25Z" fill="#98A2B3"/>
<path d="M9.0001 9.25C9.55239 9.25 10.0001 9.69771 10.0001 10.25V15.25C10.0001 15.8023 9.55239 16.25 9.0001 16.25C8.44782 16.25 8.0001 15.8023 8.0001 15.25V10.25C8.0001 9.69771 8.44782 9.25 9.0001 9.25Z" fill="#98A2B3"/>
<path fill-rule="evenodd" clip-rule="evenodd" d="M13.9098 6.55056C14.0004 5.28179 12.9065 4.26463 11.6634 4.4083C10.3914 4.5553 8.42844 4.75 7.0001 4.75C5.57176 4.75 3.60884 4.5553 2.33681 4.4083C1.09368 4.26463 -0.000173315 5.28179 0.0904531 6.55056L0.947187 18.5448C1.01213 19.454 1.68937 20.2228 2.61875 20.3626C3.61535 20.5124 5.44405 20.7518 7.00126 20.75C8.53934 20.7482 10.3755 20.5099 11.3765 20.3614C12.3074 20.2232 12.9881 19.454 13.0532 18.5421L13.9098 6.55056ZM11.893 6.39507C11.8965 6.39467 11.8991 6.39491 11.8991 6.39491L11.9018 6.39551C11.904 6.39628 11.9075 6.39811 11.9109 6.40137C11.9132 6.40353 11.9149 6.40617 11.9149 6.40617L11.9148 6.40806L11.0592 18.3865C10.0685 18.5329 8.37064 18.7484 6.99895 18.75C5.61239 18.7516 3.92498 18.5359 2.94112 18.3885L2.08537 6.40806L2.0853 6.40617C2.0853 6.40617 2.087 6.40353 2.08928 6.40137C2.09272 6.39811 2.09621 6.39628 2.09843 6.39551L2.10108 6.39491C2.10108 6.39491 2.10374 6.39467 2.1072 6.39507C3.38149 6.54234 5.44555 6.75 7.0001 6.75C8.55466 6.75 10.6187 6.54234 11.893 6.39507Z" fill="#98A2B3"/>
</svg>
