<svg width="20" height="20" viewBox="0 0 20 20" fill="none" xmlns="http://www.w3.org/2000/svg">
<path d="M8.4954 12.501L8.4946 19.999H5.49962L5.50038 12.501H8.4954ZM15.2551 11.001H11.7537C11.3395 11.001 11.0037 11.3368 11.0037 11.751V15.253C11.0037 15.6672 11.3395 16.003 11.7537 16.003H15.2551C15.6693 16.003 16.0051 15.6672 16.0051 15.253V11.751C16.0051 11.3368 15.6693 11.001 15.2551 11.001ZM14.5044 12.501V14.503H12.5034V12.501H14.5044ZM6.16638 5.002H1.50138L1.50148 6.16674C1.50148 7.34763 2.37901 8.3236 3.51754 8.478L3.67435 8.4939L3.83406 8.4993C5.06862 8.4993 6.07918 7.54019 6.16125 6.32644L6.16663 6.16674L6.16638 5.002ZM12.3314 5.002H7.66638L7.66663 6.16674C7.66663 7.34763 8.5442 8.3236 9.6827 8.478L9.8395 8.4939L9.9992 8.4993C11.2338 8.4993 12.2443 7.54019 12.3264 6.32644L12.3318 6.16674L12.3314 5.002ZM18.4984 5.002H13.8334L13.8341 6.16674C13.8341 7.34763 14.7117 8.3236 15.8502 8.478L16.007 8.4939L16.1667 8.4993C17.4013 8.4993 18.4118 7.54019 18.4939 6.32644L18.4993 6.16674L18.4984 5.002ZM7.061 1.5H4.32638L2.46938 3.502H6.446L7.061 1.5ZM11.369 1.5H8.631L8.015 3.502H11.985L11.369 1.5ZM15.6734 1.5H12.939L13.554 3.502H17.5304L15.6734 1.5ZM0.201656 3.74193L3.45055 0.23991C3.56882 0.11243 3.72689 0.0308099 3.89705 0.00714993L4.00038 0H16.0004C16.1743 0 16.3416 0.0603699 16.4747 0.16902L16.5502 0.23991L19.8225 3.76824L19.8531 3.80714C19.9549 3.94281 20.0008 4.09665 20.0008 4.24775L19.9993 6.16674C19.9993 7.16092 19.6207 8.0667 18.9999 8.7478L18.9991 19.25C18.9991 19.6297 18.717 19.9435 18.3509 19.9932L18.2491 20L9.9956 19.999L9.9963 11.751C9.9963 11.3368 9.6605 11.001 9.2463 11.001H4.75038C4.33617 11.001 4.00038 11.3368 4.00038 11.751L3.99962 19.999L1.75162 20C1.37193 20 1.05813 19.7178 1.00847 19.3518L1.00162 19.25L1.00084 8.7478C0.421326 8.112 0.0529264 7.28045 0.00646637 6.36396L0.00147651 6.16674L0.00128649 4.29097C-0.00678351 4.15366 0.0228663 4.01238 0.0972163 3.88313L0.146996 3.807L0.201656 3.74193Z" fill="#36B3A5"/>
</svg>
