<svg width="19" height="20" viewBox="0 0 19 20" fill="none" xmlns="http://www.w3.org/2000/svg">
<path d="M14 2C13.4477 2 13 1.55228 13 1C13 0.44772 13.4477 0 14 0H18C18.5523 0 19 0.44772 19 1V5C19 5.55228 18.5523 6 18 6C17.4477 6 17 5.55228 17 5V3.41421L11.2071 9.2071C10.8166 9.5976 10.1834 9.5976 9.7929 9.2071L7 6.41421L1.70711 11.7071C1.31658 12.0976 0.68342 12.0976 0.29289 11.7071C-0.0976299 11.3166 -0.0976299 10.6834 0.29289 10.2929L6.29289 4.29289C6.48043 4.10536 6.73478 4 7 4C7.2652 4 7.5196 4.10536 7.7071 4.29289L10.5 7.08579L15.5858 2H14ZM2 16V19C2 19.5523 1.55228 20 1 20C0.44772 20 0 19.5523 0 19V16C0 15.4477 0.44772 15 1 15C1.55228 15 2 15.4477 2 16ZM7 12C7 11.4477 6.55228 11 6 11C5.44772 11 5 11.4477 5 12V19C5 19.5523 5.44772 20 6 20C6.55228 20 7 19.5523 7 19V12ZM11 13C11.5523 13 12 13.4477 12 14V19C12 19.5523 11.5523 20 11 20C10.4477 20 10 19.5523 10 19V14C10 13.4477 10.4477 13 11 13ZM17 9C17 8.4477 16.5523 8 16 8C15.4477 8 15 8.4477 15 9V19C15 19.5523 15.4477 20 16 20C16.5523 20 17 19.5523 17 19V9Z" fill="#36B3A5"/>
</svg>
