<svg width="18" height="19" viewBox="0 0 18 19" fill="none" xmlns="http://www.w3.org/2000/svg">
<path fill-rule="evenodd" clip-rule="evenodd" d="M1.08333 0.833374C0.623096 0.833374 0.25 1.20647 0.25 1.66671C0.25 2.12694 0.623096 2.50004 1.08333 2.50004C1.69035 2.50004 2.22066 2.94111 2.32984 3.56171L2.90141 6.81062L2.90192 6.81349L3.26813 8.8601C3.49716 10.1402 3.68006 11.1624 3.9113 11.9744C4.14977 12.8118 4.45884 13.5008 4.98376 14.0831C5.3443 14.483 5.76614 14.8254 6.23364 15.0986C6.91088 15.4944 7.65747 15.6687 8.54511 15.7521C9.40987 15.8334 10.4817 15.8334 11.8319 15.8334H12.2424C12.8429 15.8334 13.338 15.8334 13.7459 15.8037C14.1708 15.7728 14.5575 15.7069 14.9327 15.5469C15.4799 15.3137 15.9591 14.947 16.3221 14.4791C16.5727 14.156 16.7291 13.7998 16.8574 13.4019C16.9798 13.0222 17.0915 12.5542 17.2256 11.9919L17.2425 11.9209C17.4465 11.0663 17.6131 10.368 17.6937 9.79776C17.7767 9.21104 17.7858 8.6592 17.5969 8.1273C17.3313 7.37955 16.8086 6.75003 16.1246 6.33992C15.6428 6.05102 15.098 5.93798 14.4935 5.88504C13.9033 5.83335 13.1638 5.83336 12.2512 5.83337H4.42175L3.9713 3.27294C3.72412 1.86791 2.51195 0.833374 1.08333 0.833374ZM12.2122 7.50004C13.173 7.50004 13.8393 7.50079 14.3481 7.54535C14.851 7.5894 15.1024 7.67031 15.2676 7.76933C15.628 7.98544 15.8934 8.31081 16.0264 8.68513C16.0843 8.84832 16.1108 9.08843 16.0435 9.56429C15.9751 10.0477 15.8276 10.6697 15.6118 11.5743C15.4684 12.1753 15.3713 12.5798 15.2711 12.8905C15.1746 13.1899 15.0921 13.3455 15.0052 13.4575C14.8193 13.6971 14.57 13.8898 14.2791 14.0138C14.139 14.0735 13.955 14.1174 13.6249 14.1414C13.2847 14.1662 12.8504 14.1667 12.2122 14.1667H11.874C10.4724 14.1667 9.47878 14.1659 8.70108 14.0928C7.93732 14.021 7.45978 13.8848 7.0746 13.6597C6.75362 13.4721 6.46605 13.2382 6.22168 12.9671C5.93152 12.6453 5.71522 12.2236 5.51424 11.5179C5.30866 10.796 5.13956 9.85655 4.90092 8.52286L4.7179 7.50004H12.2122Z" fill="#101928"/>
<path d="M7.75 17.2917C7.75 17.867 7.28363 18.3334 6.70833 18.3334C6.13304 18.3334 5.66667 17.867 5.66667 17.2917C5.66667 16.7164 6.13304 16.25 6.70833 16.25C7.28363 16.25 7.75 16.7164 7.75 17.2917Z" fill="#101928"/>
<path d="M14.2083 18.3334C14.7836 18.3334 15.25 17.867 15.25 17.2917C15.25 16.7164 14.7836 16.25 14.2083 16.25C13.633 16.25 13.1667 16.7164 13.1667 17.2917C13.1667 17.867 13.633 18.3334 14.2083 18.3334Z" fill="#101928"/>
</svg>
