<svg width="17" height="16" viewBox="0 0 17 16" fill="none" xmlns="http://www.w3.org/2000/svg">
<g clip-path="url(#clip0_127_9755)">
<path d="M1.35254 14.6667C1.35254 13.2523 1.91444 11.8957 2.91464 10.8955C3.91483 9.89532 5.27138 9.33342 6.68587 9.33342C8.10036 9.33342 9.45691 9.89532 10.4571 10.8955C11.4573 11.8957 12.0192 13.2523 12.0192 14.6667H10.6859C10.6859 13.6059 10.2644 12.5885 9.5143 11.8383C8.76415 11.0882 7.74674 10.6667 6.68587 10.6667C5.62501 10.6667 4.60759 11.0882 3.85745 11.8383C3.1073 12.5885 2.68587 13.6059 2.68587 14.6667H1.35254ZM6.68587 8.66675C4.47587 8.66675 2.68587 6.87675 2.68587 4.66675C2.68587 2.45675 4.47587 0.666748 6.68587 0.666748C8.89587 0.666748 10.6859 2.45675 10.6859 4.66675C10.6859 6.87675 8.89587 8.66675 6.68587 8.66675ZM6.68587 7.33342C8.15921 7.33342 9.35254 6.14008 9.35254 4.66675C9.35254 3.19341 8.15921 2.00008 6.68587 2.00008C5.21254 2.00008 4.01921 3.19341 4.01921 4.66675C4.01921 6.14008 5.21254 7.33342 6.68587 7.33342ZM12.2085 9.80208C13.1454 10.224 13.9405 10.9076 14.4983 11.7706C15.056 12.6335 15.3526 13.6392 15.3525 14.6667H14.0192C14.0194 13.8961 13.7969 13.1417 13.3786 12.4945C12.9603 11.8472 12.3639 11.3345 11.6612 11.0181L12.2079 9.80208H12.2085ZM11.7499 2.27541C12.4216 2.55228 12.9958 3.02244 13.3999 3.62624C13.8039 4.23003 14.0195 4.94024 14.0192 5.66675C14.0195 6.58164 13.6777 7.46357 13.0609 8.1393C12.4441 8.81503 11.597 9.23573 10.6859 9.31875V7.97675C11.1798 7.906 11.6381 7.67876 11.9934 7.32839C12.3487 6.97801 12.5823 6.52296 12.66 6.03004C12.7376 5.53711 12.6552 5.03228 12.4248 4.58965C12.1944 4.14702 11.8282 3.78991 11.3799 3.57075L11.7499 2.27541Z" fill="#0157FF"/>
</g>
<defs>
<clipPath id="clip0_127_9755">
<rect width="16" height="16" fill="white" transform="translate(0.0195312)"/>
</clipPath>
</defs>
</svg>
