<svg width="20" height="20" viewBox="0 0 20 20" fill="none" xmlns="http://www.w3.org/2000/svg">
<path d="M5.5 5.99981C7.15685 5.99981 8.5 4.65671 8.5 2.9999C8.5 1.3431 7.15685 0 5.5 0C3.84315 0 2.5 1.3431 2.5 2.9999C2.5 4.65671 3.84315 5.99981 5.5 5.99981ZM7.72747e-08 8.7678C7.72747e-08 7.79149 0.79149 7 1.76784 7H6.53514C6.19479 7.58834 6 8.2714 6 9C6 10.1947 6.52377 11.2671 7.3542 12H6.26784C5.08102 12 4.06867 12.747 3.67527 13.7964C2.17656 13.4301 1.24767 12.6128 0.70086 11.7027C-5.99027e-05 10.536 -9.92273e-06 9.3355 7.72747e-08 9.1272V8.7678ZM14.0001 9C14.0001 8.2714 13.8054 7.58834 13.465 7H18.2322C19.2085 7 20 7.79149 20 8.7678V9.1272C20 9.3355 20.0001 10.536 19.2991 11.7027C18.7523 12.6128 17.8234 13.4301 16.3247 13.7964C15.9313 12.747 14.919 12 13.7322 12H12.6459C13.4764 11.2671 14.0001 10.1947 14.0001 9ZM17.5 2.9999C17.5 4.65671 16.1569 5.99981 14.5 5.99981C12.8431 5.99981 11.5 4.65671 11.5 2.9999C11.5 1.3431 12.8431 0 14.5 0C16.1569 0 17.5 1.3431 17.5 2.9999ZM4.5 14.7678C4.5 13.7915 5.29149 13 6.26784 13H13.7322C14.7085 13 15.5 13.7915 15.5 14.7678V15.1272C15.5 15.3355 15.5001 16.536 14.7991 17.7027C14.0578 18.9367 12.614 20 10 20C7.38597 20 5.94224 18.9367 5.20085 17.7027C4.49994 16.536 4.49999 15.3355 4.5 15.1272V14.7678ZM10 11.9998C11.6569 11.9998 13 10.6567 13 8.9999C13 7.3431 11.6569 6 10 6C8.3431 6 7 7.3431 7 8.9999C7 10.6567 8.3431 11.9998 10 11.9998Z" fill="#36B3A5"/>
</svg>
