<svg width="30" height="27" viewBox="0 0 30 27" fill="none" xmlns="http://www.w3.org/2000/svg">
<path fill-rule="evenodd" clip-rule="evenodd" d="M14.6002 0.164062L5.96813 0.684635C3.91236 0.808612 2.09858 2.02531 1.26202 3.84151L0.507678 5.47924C-0.305988 7.24575 -0.065308 9.29881 1.13674 10.8453L1.49366 11.3045L1.98535 21.7422C2.11953 24.5906 4.55188 26.8333 7.50692 26.8333H21.6934C24.6484 26.8333 27.0808 24.5906 27.215 21.7422L27.6977 11.4954C29.0123 10.3096 29.4967 8.45984 28.8656 6.78536L27.8811 4.17284C27.1298 2.17927 25.2255 0.804846 23.0314 0.672524L14.6002 0.164062ZM4.74614 21.6211L4.32769 12.7383C5.51134 12.8728 6.73307 12.6076 7.76666 11.9427L7.91018 11.8504C8.69056 11.3484 9.68987 11.2884 10.5288 11.6931L12.1283 12.4648C13.6844 13.2155 15.516 13.2155 17.072 12.4648L18.6716 11.6931C19.5105 11.2884 20.5098 11.3484 21.2901 11.8504L21.4337 11.9427C22.4673 12.6076 23.689 12.8728 24.8726 12.7383L24.4542 21.6211C24.3871 23.0453 23.1709 24.1667 21.6934 24.1667H18.8656L19.1449 20.9325C19.3664 18.367 17.2682 16.1667 14.6002 16.1667C11.9321 16.1667 9.83389 18.367 10.0555 20.9325L10.3348 24.1667H7.50692C6.02941 24.1667 4.81323 23.0453 4.74614 21.6211ZM22.9667 9.72393C23.7576 10.2328 24.7881 10.2328 25.5791 9.72393C26.2657 9.28227 26.5504 8.44495 26.2684 7.69667L25.2838 5.08415C24.9082 4.08737 23.9561 3.40016 22.859 3.334L14.6002 2.83593L6.14052 3.34611C5.11264 3.4081 4.20574 4.01644 3.78747 4.92455L3.03312 6.56227C2.62629 7.44553 2.74663 8.47206 3.34765 9.24531L3.80128 9.82892C4.56399 10.2299 5.50144 10.195 6.23367 9.72393L6.37719 9.63161C7.98275 8.59879 10.0388 8.47528 11.7647 9.30796L13.3642 10.0797C14.1423 10.455 15.0581 10.455 15.8361 10.0797L17.4356 9.30796C19.1616 8.47528 21.2176 8.59879 22.8231 9.63161L22.9667 9.72393ZM16.3908 20.7111L16.0923 24.1667H13.108L12.8095 20.7111C12.7222 19.7003 13.5489 18.8333 14.6002 18.8333C15.6514 18.8333 16.4781 19.7003 16.3908 20.7111Z" fill="#F56630"/>
</svg>
