<svg width="20" height="20" viewBox="0 0 20 20" fill="none" xmlns="http://www.w3.org/2000/svg">
<path d="M10.0006 -0.00195312C15.5243 -0.00195312 20.0021 4.47589 20.0021 9.9996C20.0021 15.5233 15.5243 20.0011 10.0006 20.0011C4.47686 20.0011 -0.000976562 15.5233 -0.000976562 9.9996C-0.000976562 4.47589 4.47686 -0.00195312 10.0006 -0.00195312ZM12.9395 14.4993H7.06166C7.7137 16.9135 8.84708 18.5011 10.0006 18.5011C11.1541 18.5011 12.2874 16.9135 12.9395 14.4993ZM5.50888 14.4999L2.78639 14.4998C3.74473 16.0328 5.17818 17.2384 6.88056 17.9104C6.35828 17.0906 5.92729 16.0643 5.61029 14.8949L5.50888 14.4999ZM17.2148 14.4998L14.4923 14.4999C14.1685 15.8337 13.7009 16.9995 13.1195 17.9104C14.7165 17.2804 16.0762 16.1814 17.0296 14.7833L17.2148 14.4998ZM5.09399 7.99895H1.73638L1.73163 8.0162C1.57954 8.6525 1.49902 9.3166 1.49902 9.9996C1.49902 11.0558 1.6916 12.0669 2.04358 12.9999L5.21674 12.9995C5.07444 12.0504 4.99902 11.0422 4.99902 9.9996C4.99902 9.3156 5.03148 8.6464 5.09399 7.99895ZM13.3975 7.99901H6.60364C6.53562 8.6393 6.49901 9.309 6.49901 9.9996C6.49901 11.0591 6.58516 12.0694 6.73875 12.9997H13.2624C13.416 12.0694 13.5021 11.0591 13.5021 9.9996C13.5021 9.309 13.4655 8.6393 13.3975 7.99901ZM18.2652 7.99811L14.9072 7.99897C14.9697 8.6464 15.0021 9.3156 15.0021 9.9996C15.0021 11.0422 14.9267 12.0504 14.7844 12.9995L17.9576 12.9999C18.3095 12.0669 18.5021 11.0558 18.5021 9.9996C18.5021 9.3102 18.4201 8.64 18.2652 7.99811ZM6.88162 2.08875L6.85871 2.09747C4.8114 2.91218 3.15538 4.49949 2.25071 6.49935L5.29883 6.49972C5.61219 4.74693 6.15903 3.221 6.88162 2.08875ZM10.0006 1.49805L9.88488 1.50335C8.61948 1.6191 7.39699 3.62107 6.82928 6.4993H13.1719C12.6057 3.62914 11.3885 1.63033 10.1269 1.50436L10.0006 1.49805ZM13.1206 2.08881L13.2274 2.2629C13.8966 3.37537 14.4048 4.83525 14.7023 6.49972L17.7504 6.49935C16.8858 4.58795 15.3348 3.05341 13.4118 2.21008L13.1206 2.08881Z" fill="#36B3A5"/>
</svg>
