<svg width="66" height="76" viewBox="0 0 66 76" fill="none" xmlns="http://www.w3.org/2000/svg">
<path d="M32.577 0.000194298C50.5563 9.94187e-05 65.1541 16.8971 65.1542 37.7083C65.1542 58.5195 50.5565 75.4167 32.5773 75.4168C14.5981 75.4169 0.000230487 58.5199 0.000148519 37.7086C6.65515e-05 16.8974 14.5978 0.000289177 32.577 0.000194298Z" fill="#E9E7EB"/>
<g opacity="0.51">
<path d="M52.877 25.3587L41.6441 66.9998L15.6919 56.4724L26.9248 14.8313L52.877 25.3587Z" fill="#CCCCCC"/>
</g>
<path d="M52.5175 23.5777L40.3447 66.1686L15.3322 56.591L27.5041 14.0001L52.5175 23.5777Z" stroke="#BCBCBC"/>
<path d="M52.5176 24.5277L41.2847 66.1689L15.3326 55.6414L26.5654 14.0003L52.5176 24.5277Z" fill="white"/>
<path d="M24.0461 23.1088L12.85 44.7835L11.3615 43.7432L22.5576 22.0685L24.0461 23.1088Z" fill="#FBB550"/>
<path d="M24.8296 19.7809L22.6834 22.0411L24.1183 23.0569L24.8296 19.7809Z" fill="#FFE7C6"/>
<path d="M24.8016 19.8423L24.051 20.5982L24.5786 20.9718L24.8016 19.8423Z" fill="#484848"/>
</svg>
