<svg width="12" height="14" viewBox="0 0 12 14" fill="none" xmlns="http://www.w3.org/2000/svg">
<path d="M2.16699 0.333252C1.33857 0.333252 0.666992 1.00483 0.666992 1.83325V12.1666C0.666992 12.995 1.33857 13.6666 2.16699 13.6666H7.16726C7.99099 13.6666 8.65966 13.0027 8.66726 12.1807L8.66739 12.1667V11.1667C8.66739 10.8905 8.44359 10.6667 8.16739 10.6667C7.86486 10.6667 7.67453 10.5853 7.54286 10.4795C7.40419 10.3679 7.28986 10.1959 7.20219 9.95332C7.02046 9.44998 7.00079 8.78632 7.00073 8.16658C7.00073 8.03998 6.95266 7.91805 6.86626 7.82552C6.81539 7.77099 6.78126 7.73405 6.75666 7.70752C6.69639 7.64239 6.69353 7.63932 6.64299 7.59172C6.59373 7.54538 6.44326 7.40172 5.85433 6.81305C5.54199 6.50085 5.36879 6.23665 5.31213 6.03485C5.28619 5.94238 5.28753 5.87338 5.30173 5.81785C5.31586 5.76278 5.35053 5.69045 5.43819 5.60275C5.52579 5.5151 5.59799 5.48062 5.65273 5.46661C5.70786 5.45247 5.77666 5.45116 5.86893 5.47719C6.07059 5.53407 6.33459 5.70759 6.64706 6.02025C7.00679 6.38019 7.34866 6.71825 7.65486 7.02112C8.16119 7.52179 8.57059 7.92665 8.80193 8.17452C8.99033 8.37638 9.30673 8.38725 9.50859 8.19885C9.71046 8.01045 9.72139 7.69405 9.53299 7.49219C9.34326 7.28892 9.03839 6.98385 8.66713 6.61592L8.66706 4.37346L10.5613 6.26772C10.8426 6.54899 11.0007 6.93052 11.0007 7.32832V13.1666C11.0007 13.4427 11.2245 13.6666 11.5007 13.6666C11.7768 13.6666 12.0007 13.4427 12.0007 13.1666V7.32832C12.0007 6.66532 11.7373 6.02945 11.2684 5.56058L8.66706 2.95921L8.66699 1.83321C8.66699 1.0048 7.99546 0.333252 7.16699 0.333252H2.16699ZM6.26166 10.293C6.32619 10.4717 6.40946 10.6491 6.51753 10.8145C6.01453 11.0566 5.66746 11.5711 5.66746 12.1667V12.6666H3.66743V12.1667C3.66743 11.3383 2.99585 10.6667 2.16743 10.6667H1.66699V3.33303H2.16743C2.99585 3.33303 3.66743 2.66146 3.66743 1.83303V1.33325H5.66746V1.83303C5.66746 2.66146 6.33899 3.33303 7.16746 3.33303H7.66706L7.66713 5.62532C7.56413 5.52285 7.45966 5.41871 7.35439 5.31338C7.00033 4.9591 6.58886 4.64122 6.14033 4.51473C5.90753 4.44907 5.65753 4.43309 5.40459 4.49786C5.25399 4.53644 5.11326 4.60084 4.98299 4.6877C4.87973 4.67374 4.77439 4.66653 4.66733 4.66653C3.37863 4.66653 2.33396 5.71118 2.33396 6.99985C2.33396 8.28852 3.37863 9.33318 4.66733 9.33318C5.16999 9.33318 5.63559 9.17418 6.01653 8.90378C6.04113 9.35992 6.10353 9.85518 6.26166 10.293ZM3.33396 6.99985C3.33396 6.38938 3.74427 5.87465 4.30417 5.71658C4.27625 5.91885 4.29668 6.11752 4.34935 6.30512C4.47539 6.75405 4.79286 7.16598 5.14739 7.52032C5.33519 7.70805 5.47939 7.85145 5.59066 7.96172C5.35113 8.19178 5.02573 8.33318 4.66733 8.33318C3.93091 8.33318 3.33396 7.73625 3.33396 6.99985ZM1.66699 1.83325C1.66699 1.55711 1.89085 1.33325 2.16699 1.33325H2.66743V1.83303C2.66743 2.10918 2.44357 2.33303 2.16743 2.33303H1.66699V1.83325ZM6.66746 1.33325H7.16699C7.44313 1.33325 7.66699 1.5571 7.66699 1.83324L7.66706 2.33303H7.16746C6.89126 2.33303 6.66746 2.10918 6.66746 1.83303V1.33325ZM7.66726 11.6667V12.1666C7.66733 12.4427 7.44346 12.6666 7.16726 12.6666H6.66746V12.1667C6.66746 11.8905 6.89126 11.6667 7.16746 11.6667H7.66726ZM2.66743 12.6666H2.16699C1.89085 12.6666 1.66699 12.4427 1.66699 12.1666V11.6667H2.16743C2.44357 11.6667 2.66743 11.8905 2.66743 12.1667V12.6666Z" fill="#F21616"/>
</svg>
