<svg width="16" height="16" viewBox="0 0 16 16" fill="none" xmlns="http://www.w3.org/2000/svg">
<g clip-path="url(#clip0_127_8306)">
<path d="M0.66659 3.16715H2.49041C2.85037 4.49158 4.21583 5.27344 5.54026 4.91348C6.39089 4.68228 7.05539 4.01779 7.28659 3.16715H15.3318C15.6999 3.16715 15.9984 2.86871 15.9984 2.50056C15.9984 2.13241 15.6999 1.83397 15.3318 1.83397H7.28659C6.92662 0.509511 5.56116 -0.272348 4.23673 0.0876158C3.3861 0.318812 2.7216 0.983308 2.49041 1.83394H0.66659C0.298439 1.83394 0 2.13238 0 2.50053C0 2.86868 0.298439 3.16715 0.66659 3.16715Z" fill="#858D9D"/>
<path d="M15.3318 7.33362H13.508C13.1487 6.00938 11.784 5.22708 10.4598 5.5863C9.60845 5.81724 8.94339 6.48227 8.71244 7.33362H0.66659C0.298439 7.33362 0 7.63206 0 8.00021C0 8.36836 0.298439 8.6668 0.66659 8.6668H8.71244C9.07169 9.99104 10.4364 10.7733 11.7606 10.4141C12.612 10.1832 13.277 9.51815 13.508 8.6668H15.3318C15.6999 8.6668 15.9984 8.36836 15.9984 8.00021C15.9984 7.63206 15.6999 7.33362 15.3318 7.33362Z" fill="#858D9D"/>
<path d="M15.3318 12.833H7.28659C6.92662 11.5085 5.56116 10.7267 4.23673 11.0866C3.3861 11.3178 2.7216 11.9823 2.49041 12.833H0.66659C0.298439 12.833 0 13.1314 0 13.4996C0 13.8677 0.298439 14.1661 0.66659 14.1661H2.49041C2.85037 15.4906 4.21583 16.2724 5.54026 15.9125C6.39089 15.6813 7.05539 15.0168 7.28659 14.1661H15.3318C15.6999 14.1661 15.9984 13.8677 15.9984 13.4996C15.9984 13.1314 15.6999 12.833 15.3318 12.833Z" fill="#858D9D"/>
</g>
<defs>
<clipPath id="clip0_127_8306">
<rect width="16" height="16" fill="white"/>
</clipPath>
</defs>
</svg>
