<svg width="146" height="146" viewBox="0 0 146 146" fill="none" xmlns="http://www.w3.org/2000/svg">
<path d="M62.3543 25.8542C64.874 25.8542 66.9168 27.8969 66.9168 30.4167V79.0834H115.583C117.893 79.0834 119.802 80.8001 120.105 83.0266L120.146 83.6459C120.146 113.884 95.6338 135.354 65.396 135.354C35.1584 135.354 10.646 110.842 10.646 80.6042C10.646 50.3666 32.1168 25.8542 62.3543 25.8542ZM57.7918 35.2043L56.521 35.3486C34.0778 38.2128 19.771 57.3825 19.771 80.6042C19.771 105.802 40.198 126.229 65.396 126.229C88.6179 126.229 107.788 111.922 110.652 89.4792L110.79 88.2084H62.3543C60.0445 88.2084 58.1356 86.4917 57.8335 84.2652L57.7918 83.6459V35.2043ZM80.6043 10.6459C110.842 10.6459 135.354 35.1583 135.354 65.3959C135.354 67.9156 133.312 69.9584 130.792 69.9584H80.6043C78.0846 69.9584 76.0418 67.9156 76.0418 65.3959V15.2084C76.0418 12.6886 78.0846 10.6459 80.6043 10.6459ZM85.1668 19.996V60.8334H125.998L125.86 59.5625C123.239 39.0294 106.971 22.7607 86.4376 20.1403L85.1668 19.996Z" fill="#446392"/>
</svg>
