<svg width="147" height="147" viewBox="0 0 147 147" fill="none" xmlns="http://www.w3.org/2000/svg">
<path d="M73.5008 12.238C107.333 12.238 134.76 39.6648 134.76 73.4975C134.76 107.33 107.333 134.757 73.5008 134.757C39.668 134.757 12.2412 107.33 12.2412 73.4975C12.2412 39.6648 39.668 12.238 73.5008 12.238ZM91.5015 101.058H55.4999C59.4936 115.845 66.4356 125.569 73.5008 125.569C80.566 125.569 87.5074 115.845 91.5015 101.058ZM45.9891 101.062L29.3139 101.061C35.1837 110.451 43.9636 117.835 54.3906 121.951C51.1917 116.93 48.5519 110.644 46.6102 103.481L45.9891 101.062ZM117.688 101.061L101.012 101.062C99.0292 109.231 96.1651 116.372 92.604 121.951C102.386 118.092 110.714 111.361 116.553 102.798L117.688 101.061ZM43.4479 61.2436H22.8825L22.8534 61.3492C21.9219 65.2465 21.4287 69.3142 21.4287 73.4975C21.4287 79.9668 22.6083 86.1597 24.7641 91.8744L44.1997 91.8719C43.3282 86.0587 42.8662 79.8835 42.8662 73.4975C42.8662 69.308 43.065 65.2092 43.4479 61.2436ZM94.3068 61.2439H52.6945C52.2779 65.1657 52.0537 69.2676 52.0537 73.4975C52.0537 79.987 52.5813 86.1751 53.5221 91.8731H93.4793C94.4201 86.1751 94.9475 79.987 94.9475 73.4975C94.9475 69.2676 94.7233 65.1657 94.3068 61.2439ZM124.121 61.2384L103.554 61.2437C103.937 65.2092 104.135 69.308 104.135 73.4975C104.135 79.8835 103.673 86.0587 102.802 91.8719L122.237 91.8744C124.393 86.1597 125.572 79.9668 125.572 73.4975C125.572 69.275 125.07 65.17 124.121 61.2384ZM54.3971 25.0436L54.2568 25.097C41.717 30.0871 31.5739 39.8094 26.0328 52.0585L44.7025 52.0608C46.6219 41.3249 49.9713 31.9786 54.3971 25.0436ZM73.5008 21.4255L72.7921 21.458C65.0415 22.167 57.5538 34.429 54.0766 52.0582H92.925C89.457 34.4785 82.0017 22.2358 74.2744 21.4642L73.5008 21.4255ZM92.6108 25.0439L93.2649 26.1102C97.3638 32.9241 100.476 41.8659 102.299 52.0608L120.968 52.0585C115.673 40.3512 106.173 30.9521 94.3944 25.7867L92.6108 25.0439Z" fill="#507D7D"/>
</svg>
