<svg width="80" height="80" viewBox="0 0 80 80" fill="none" xmlns="http://www.w3.org/2000/svg">
<path d="M67.5 16.6667C58.622 16.6667 49.9733 13.5217 41.5 7.16667C40.611 6.50001 39.389 6.50001 38.5 7.16667C30.0266 13.5217 21.378 16.6667 12.5 16.6667C11.1193 16.6667 10 17.786 10 19.1667V36.6667C10 53.3373 19.8585 65.5857 39.0837 73.1593C39.6727 73.3913 40.3273 73.3913 40.9163 73.1593C60.1413 65.5857 70 53.3373 70 36.6667V19.1667C70 17.786 68.8807 16.6667 67.5 16.6667ZM55.856 31.0096L35.856 49.343C34.8693 50.2473 33.3453 50.2143 32.3989 49.2677L24.0656 40.9343C23.0893 39.958 23.0893 38.3753 24.0656 37.399C25.0419 36.4227 26.6248 36.4227 27.6011 37.399L34.242 44.0397L52.4773 27.3238C53.495 26.3908 55.0767 26.4596 56.0097 27.4774C56.9427 28.4952 56.8737 30.0766 55.856 31.0096Z" fill="#0157FF"/>
</svg>
