<svg width="125" height="125" viewBox="0 0 125 125" fill="none" xmlns="http://www.w3.org/2000/svg">
<path d="M53.3854 18.2291H71.6146C73.7719 18.2291 75.5208 19.978 75.5208 22.1354V31.25H49.4792V22.1354C49.4792 19.978 51.2281 18.2291 53.3854 18.2291ZM41.6667 22.1354V31.25H32.5521C23.2035 31.25 15.625 38.8284 15.625 48.177V87.2395C15.625 96.588 23.2035 104.167 32.5521 104.167H92.4479C101.796 104.167 109.375 96.588 109.375 87.2395V48.177C109.375 38.8284 101.796 31.25 92.4479 31.25H83.3333V22.1354C83.3333 15.6633 78.0865 10.4166 71.6146 10.4166H53.3854C46.9133 10.4166 41.6667 15.6633 41.6667 22.1354ZM101.562 48.177V55.9895C101.562 61.0234 97.4818 65.1041 92.4479 65.1041H72.9167V62.5C72.9167 59.6234 70.5849 57.2916 67.7083 57.2916H57.2917C54.4151 57.2916 52.0833 59.6234 52.0833 62.5V65.1041H32.5521C27.5182 65.1041 23.4375 61.0234 23.4375 55.9895V48.177C23.4375 43.1432 27.5182 39.0625 32.5521 39.0625H92.4479C97.4818 39.0625 101.562 43.1432 101.562 48.177ZM101.562 70.2557V87.2395C101.562 92.2734 97.4818 96.3541 92.4479 96.3541H32.5521C27.5182 96.3541 23.4375 92.2734 23.4375 87.2395V70.2557C26.0685 71.9401 29.1962 72.9166 32.5521 72.9166H52.0833C52.0833 75.7932 54.4151 78.125 57.2917 78.125H67.7083C70.5849 78.125 72.9167 75.7932 72.9167 72.9166H92.4479C95.8036 72.9166 98.9318 71.9401 101.562 70.2557Z" fill="#446392"/>
</svg>
