<svg width="80" height="80" viewBox="0 0 80 80" fill="none" xmlns="http://www.w3.org/2000/svg">
<path d="M58.3332 40C68.4585 40 76.6665 48.208 76.6665 58.3333C76.6665 68.4587 68.4585 76.6667 58.3332 76.6667C48.2078 76.6667 39.9998 68.4587 39.9998 58.3333C39.9998 48.208 48.2078 40 58.3332 40ZM58.3332 46.664L58.0335 46.691C57.3532 46.8143 56.8168 47.351 56.6935 48.0313L56.6665 48.3307L56.6652 56.664L48.3255 56.6667L48.0258 56.6937C47.3455 56.817 46.8088 57.3533 46.6855 58.0337L46.6588 58.3333L46.6855 58.633C46.8088 59.3133 47.3455 59.8497 48.0258 59.973L48.3255 60L56.6688 59.9973L56.6702 68.345L56.6972 68.6447C56.8205 69.325 57.3568 69.8613 58.0372 69.9847L58.3368 70.0117L58.6365 69.9847C59.3168 69.8613 59.8532 69.325 59.9768 68.6447L60.0035 68.345L60.0022 59.9973L68.3485 60L68.6478 59.973C69.3282 59.8497 69.8648 59.3133 69.9882 58.633L70.0152 58.3333L69.9882 58.0337C69.8648 57.3533 69.3282 56.817 68.6478 56.6937L68.3485 56.6667L59.9985 56.664L59.9998 48.3307L59.9728 48.0313C59.8495 47.351 59.3132 46.8143 58.6328 46.691L58.3332 46.664ZM47.5132 33.3333C50.2952 33.3333 52.7232 34.848 54.0178 37.0973C44.1175 39.099 36.6665 47.846 36.6665 58.3333C36.6665 62.6307 37.9175 66.6357 40.0752 70.004L40.0098 70C31.7236 70 25.0063 63.2827 25.0063 54.9967V40.8333C25.0063 36.6913 28.3641 33.3333 32.5063 33.3333H47.5132ZM24.688 33.3343C22.9762 35.1183 21.8692 37.4873 21.6966 40.1117L21.6729 40.8333V54.9967C21.6729 57.8187 22.3105 60.492 23.4494 62.88C22.3524 63.1767 21.1965 63.3333 20.004 63.3333C12.6379 63.3333 6.6665 57.362 6.6665 49.996V40.8333C6.6665 36.8637 9.75037 33.6147 13.653 33.3507L14.1665 33.3333L24.688 33.3343ZM65.8332 33.3333C69.9752 33.3333 73.3332 36.6913 73.3332 40.8333L73.3358 42.7013C69.4425 38.9637 64.1562 36.6667 58.3332 36.6667L57.5225 36.6817C57.0042 35.432 56.2562 34.298 55.3315 33.3343L65.8332 33.3333ZM61.6665 13.3333C66.2688 13.3333 69.9998 17.0643 69.9998 21.6667C69.9998 26.269 66.2688 30 61.6665 30C57.0642 30 53.3332 26.269 53.3332 21.6667C53.3332 17.0643 57.0642 13.3333 61.6665 13.3333ZM39.9998 10C45.5228 10 49.9998 14.4772 49.9998 20C49.9998 25.5228 45.5228 30 39.9998 30C34.4768 30 29.9998 25.5228 29.9998 20C29.9998 14.4772 34.4768 10 39.9998 10ZM18.3332 13.3333C22.9355 13.3333 26.6665 17.0643 26.6665 21.6667C26.6665 26.269 22.9355 30 18.3332 30C13.7308 30 9.99984 26.269 9.99984 21.6667C9.99984 17.0643 13.7308 13.3333 18.3332 13.3333Z" fill="#5306FC"/>
</svg>
