<svg width="123" height="123" viewBox="0 0 123 123" fill="none" xmlns="http://www.w3.org/2000/svg">
<path d="M93.5361 15.375C87.1704 15.375 82.01 20.5356 82.01 26.9015V57.2642C84.4746 56.6825 87.0448 56.375 89.6873 56.375H89.6975V26.9015C89.6975 24.7813 91.4159 23.0625 93.5361 23.0625C95.6564 23.0625 97.3753 24.7813 97.3753 26.9015V57.2668C100.08 57.9053 102.658 58.8745 105.063 60.128V26.9015C105.063 20.5356 99.9024 15.375 93.5361 15.375ZM71.7503 47.4015V61.6112C68.85 63.468 66.2568 65.762 64.0628 68.3998V47.4015C64.0628 45.2813 62.3439 43.5625 60.2236 43.5625C58.1034 43.5625 56.385 45.2813 56.385 47.4015V88.8629C56.3784 89.1371 56.3748 89.4118 56.3748 89.6875C56.3748 89.9632 56.3784 90.2379 56.385 90.5121V96.0984C56.385 97.2469 56.8893 98.2775 57.6883 98.9812C58.5754 102.041 59.89 104.92 61.5623 107.548C61.1231 107.599 60.6767 107.625 60.2236 107.625C53.8579 107.625 48.6973 102.465 48.6973 96.0984V47.4015C48.6973 41.0356 53.8579 35.875 60.2236 35.875C66.5899 35.875 71.7503 41.0356 71.7503 47.4015ZM15.3848 67.9016C15.3848 61.5354 20.5454 56.375 26.9114 56.375C33.2773 56.375 38.4379 61.5354 38.4379 67.9016V96.0984C38.4379 102.465 33.2773 107.625 26.9114 107.625C20.5454 107.625 15.3848 102.465 15.3848 96.0984V67.9016ZM30.7504 67.9016C30.7504 65.7814 29.0316 64.0625 26.9114 64.0625C24.7911 64.0625 23.0723 65.7814 23.0723 67.9016V96.0984C23.0723 98.2186 24.7911 99.9375 26.9114 99.9375C29.0316 99.9375 30.7504 98.2186 30.7504 96.0984V67.9016ZM117.875 89.6875C117.875 105.255 105.255 117.875 89.6873 117.875C74.1196 117.875 61.4998 105.255 61.4998 89.6875C61.4998 74.1198 74.1196 61.5 89.6873 61.5C105.255 61.5 117.875 74.1198 117.875 89.6875ZM92.5337 73.9056C91.6378 71.0315 87.7367 71.0315 86.8408 73.9056L83.9862 83.0645H74.7484C71.8492 83.0645 70.6438 86.9318 72.989 88.7081L80.4628 94.3687L77.6082 103.527C76.7123 106.401 79.8678 108.791 82.2135 107.015L89.6873 101.355L97.1611 107.015C99.5068 108.791 102.662 106.401 101.766 103.527L98.9118 94.3687L106.386 88.7081C108.731 86.9318 107.525 83.0645 104.626 83.0645H95.3883L92.5337 73.9056Z" fill="#6B4F53"/>
</svg>
