<svg width="80" height="80" viewBox="0 0 80 80" fill="none" xmlns="http://www.w3.org/2000/svg">
<path d="M46.6555 21.6667H46.0698L32.1576 33.2617L31.6363 33.659C30.563 34.4047 29.313 34.8573 28.011 34.9713L27.3563 35L6.6665 34.9967V59.1667L6.6838 59.68C6.9477 63.5827 10.197 66.6667 14.1665 66.6667H51.6555V54.992H50.8222C49.4415 54.992 48.3222 53.8727 48.3222 52.492C48.3222 51.1113 49.4415 49.992 50.8222 49.992H51.6555V44.992H50.8222C49.4415 44.992 48.3222 43.8727 48.3222 42.492C48.3222 41.1113 49.4415 39.992 50.8222 39.992H51.6555V36.6503H49.1555C47.7748 36.6503 46.6555 35.531 46.6555 34.1503V21.6667ZM51.6555 21.6667H56.6555V30.8333H51.6555V21.6667ZM61.6555 21.6667H65.8332C69.6222 21.6667 72.7552 24.4766 73.2615 28.1263L73.3158 28.6532L73.3332 29.1667V59.1667C73.3332 63.1363 70.2492 66.3853 66.3465 66.6493L65.8332 66.6667H56.6555V60.0013H57.4888C58.8695 60.0013 59.9888 58.882 59.9888 57.5013C59.9888 56.1207 58.8695 55.0013 57.4888 55.0013H56.6555V50.0013H57.4888C58.8695 50.0013 59.9888 48.882 59.9888 47.5013C59.9888 46.1207 58.8695 45.0013 57.4888 45.0013H56.6555V36.6503H59.1555C60.5362 36.6503 61.6555 35.531 61.6555 34.1503V21.6667ZM31.6363 14.6745C30.3842 13.8043 28.8915 13.3333 27.3563 13.3333H14.1665L13.653 13.3506C9.75037 13.6145 6.6665 16.8638 6.6665 20.8333V29.9967L27.3563 30L27.7041 29.9757C28.0482 29.9273 28.3786 29.8077 28.6739 29.6246L28.9567 29.4206L39.1665 20.91L32.1576 15.0717L31.6363 14.6745Z" fill="#F4C009"/>
</svg>
