<svg width="104" height="100" viewBox="0 0 104 100" fill="none" xmlns="http://www.w3.org/2000/svg">
<path d="M52.0004 99.5042C80.2766 99.5042 103.199 90.5119 103.199 79.4194C103.199 68.327 80.2766 59.3347 52.0004 59.3347C23.7242 59.3347 0.801758 68.327 0.801758 79.4194C0.801758 90.5119 23.7242 99.5042 52.0004 99.5042Z" fill="#F9FAFB"/>
<path d="M37.6284 0.49585L41.3756 5.60696L31.109 69.9806L27.3604 64.8708L37.6284 0.49585Z" fill="#D0D5DD"/>
<path d="M31.1085 70.2931C31.0099 70.2931 30.9168 70.2473 30.8571 70.1654L27.1085 65.0556C27.0585 64.989 27.039 64.9043 27.0515 64.8209L37.3182 0.445917C37.3376 0.320917 37.4307 0.220917 37.5529 0.19175C37.6751 0.162583 37.8043 0.208417 37.8779 0.311195L41.6265 5.42092C41.6765 5.48758 41.696 5.5723 41.6835 5.65564L31.4168 70.0306C31.3974 70.1556 31.3043 70.2556 31.1821 70.2848C31.1571 70.2904 31.1335 70.2931 31.1085 70.2931ZM27.689 64.7917L30.9168 69.1931L41.046 5.68619L37.8182 1.2848L27.689 64.7917Z" fill="#F9FAFB"/>
<path d="M49.702 11.2251L53.4493 16.3348L44.8937 69.9806L41.1465 64.8709L49.702 11.2251Z" fill="#D0D5DD"/>
<path d="M44.8936 70.2932C44.795 70.2932 44.702 70.2474 44.6422 70.1654L40.8936 65.0557C40.8436 64.9891 40.8242 64.9043 40.8367 64.821L49.3922 11.1752C49.4117 11.0502 49.5047 10.9502 49.627 10.921C49.7492 10.8918 49.8784 10.9377 49.952 11.0404L53.7006 16.1502C53.7506 16.2168 53.77 16.3016 53.7575 16.3849L45.202 70.0307C45.1825 70.1557 45.0895 70.2557 44.9672 70.2849C44.9422 70.2904 44.9186 70.2932 44.8936 70.2932ZM41.4756 64.7918L44.7034 69.1932L53.1214 16.4154L49.8936 12.0141L41.4756 64.7918Z" fill="#F9FAFB"/>
<path d="M61.776 21.9541L65.5246 27.0638L62.0719 48.7097L58.3232 43.5999L61.776 21.9541Z" fill="#D0D5DD"/>
<path d="M62.0714 49.0222C61.9728 49.0222 61.8797 48.9764 61.82 48.8944L58.0714 43.7847C58.0214 43.7181 58.0019 43.6333 58.0144 43.55L61.4672 21.9042C61.4866 21.7792 61.5797 21.6792 61.7019 21.65C61.8241 21.6208 61.9533 21.6667 62.0269 21.7694L65.7755 26.8792C65.8255 26.9458 65.845 27.0306 65.8325 27.1139L62.3797 48.7597C62.3603 48.8847 62.2672 48.9847 62.145 49.0139C62.12 49.0194 62.095 49.0222 62.0714 49.0222ZM58.6519 43.5208L61.8797 47.9222L65.195 27.1431L61.9672 22.7417L58.6519 43.5208Z" fill="#F9FAFB"/>
<path d="M73.8666 32.5527L77.6153 37.6625L76.3375 45.675L72.5889 40.5652L73.8666 32.5527Z" fill="#D0D5DD"/>
<path d="M76.338 45.9875C76.2394 45.9875 76.1463 45.9417 76.0866 45.8597L72.338 40.75C72.288 40.6834 72.2685 40.5986 72.281 40.5153L73.5588 32.5028C73.5782 32.3778 73.6713 32.2778 73.7935 32.2486C73.9157 32.2195 74.0449 32.2653 74.1185 32.3681L77.8671 37.4778C77.9171 37.5445 77.9366 37.6292 77.9241 37.7125L76.6463 45.725C76.6269 45.85 76.5338 45.95 76.4116 45.9792C76.3866 45.9847 76.363 45.9875 76.338 45.9875ZM72.9185 40.4861L76.1463 44.8875L77.2866 37.7431L74.0588 33.3417L72.9185 40.4861Z" fill="#F9FAFB"/>
<path d="M70.6212 52.9126L74.3684 58.0223L72.4615 69.9807L68.7129 64.8709L70.6212 52.9126Z" fill="#D0D5DD"/>
<path d="M72.461 70.2932C72.3624 70.2932 72.2694 70.2474 72.2096 70.1654L68.461 65.0557C68.411 64.9891 68.3916 64.9043 68.4041 64.821L70.311 52.8627C70.3305 52.7377 70.4235 52.6377 70.5457 52.6085C70.668 52.5793 70.7971 52.6252 70.8707 52.7279L74.6193 57.8377C74.6693 57.9043 74.6888 57.989 74.6763 58.0724L72.7693 70.0307C72.7499 70.1557 72.6568 70.2557 72.5346 70.2849C72.5096 70.2904 72.486 70.2932 72.461 70.2932ZM69.0416 64.7918L72.2693 69.1932L74.0388 58.1029L70.811 53.7016L69.0416 64.7918Z" fill="#F9FAFB"/>
<path d="M37.6281 0.49585L27.3601 64.8708H13.5781L23.8448 0.49585H37.6281Z" fill="#D0D5DD"/>
<path d="M27.3601 65.1836H13.5767C13.4851 65.1836 13.3989 65.1433 13.3392 65.0739C13.2795 65.0044 13.2545 64.9128 13.2684 64.8225L23.5351 0.447482C23.5587 0.296093 23.6906 0.183594 23.8434 0.183594H37.6267C37.7184 0.183594 37.8045 0.223871 37.8642 0.293315C37.924 0.36276 37.949 0.454426 37.9351 0.544704L27.6684 64.9197C27.6448 65.0725 27.5142 65.1836 27.3601 65.1836ZM13.9448 64.5586H27.0948L37.2614 0.808594H24.1114L13.9448 64.5586Z" fill="#F9FAFB"/>
<path d="M49.702 11.2251L41.1465 64.8709H27.3604L35.9173 11.2251H49.702Z" fill="#98A2B3"/>
<path d="M41.1466 65.1834H27.3619C27.2702 65.1834 27.1841 65.1432 27.1244 65.0737C27.0647 65.0043 27.0397 64.9126 27.0535 64.8223L35.6091 11.1765C35.6327 11.0251 35.7647 10.9126 35.9174 10.9126H49.7022C49.7938 10.9126 49.8799 10.9529 49.9397 11.0223C49.9994 11.0918 50.0244 11.1834 50.0105 11.2737L41.4549 64.9195C41.4299 65.0723 41.2994 65.1834 41.1466 65.1834ZM27.7272 64.5584H40.8785L49.3341 11.5376H36.1827L27.7272 64.5584Z" fill="#F9FAFB"/>
<path d="M47.9913 21.9543H61.7761L58.3233 43.6002C49.8858 47.7557 43.3288 55.7127 41.765 64.871H41.1455L47.9913 21.9543Z" fill="#D0D5DD"/>
<path d="M41.7645 65.1835H41.1451C41.0534 65.1835 40.9673 65.1432 40.9076 65.0738C40.8479 65.0043 40.8229 64.9127 40.8368 64.8224L47.6812 21.9057C47.7048 21.7543 47.8368 21.6418 47.9895 21.6418H61.7743C61.8659 21.6418 61.952 21.6821 62.0118 21.7516C62.0715 21.821 62.0965 21.9127 62.0826 22.003L58.6298 43.6488C58.6145 43.7488 58.5506 43.8349 58.459 43.8793C49.8423 48.1224 43.5631 56.1863 42.0715 64.9224C42.0479 65.0738 41.9173 65.1835 41.7645 65.1835ZM48.2576 22.2668L41.5631 64.2363C43.252 55.5793 49.5117 47.6446 58.0395 43.3918L61.409 22.2668H48.2576Z" fill="#F9FAFB"/>
<path d="M59.7722 77.9028C59.6735 77.7528 59.5763 77.6014 59.486 77.4459C59.4847 77.4431 59.4819 77.4389 59.4805 77.4361C59.3916 77.2848 59.3069 77.1292 59.2249 76.9723C59.2027 76.9278 59.1819 76.8834 59.1597 76.8389C59.0958 76.7098 59.0333 76.5792 58.9735 76.4459C58.9472 76.3848 58.9208 76.3237 58.8944 76.2625C58.843 76.1403 58.7944 76.0181 58.7472 75.8931C58.7194 75.8195 58.6916 75.7459 58.6652 75.6723C58.6485 75.625 58.6333 75.5778 58.6166 75.5306C58.5805 75.4209 58.5458 75.3111 58.5124 75.2C58.4999 75.1598 58.4874 75.1195 58.4763 75.0778C58.4347 74.9278 58.3944 74.7778 58.3583 74.625C58.3513 74.5986 58.3472 74.5709 58.3402 74.5445C58.3124 74.4209 58.286 74.2959 58.2624 74.1709C58.2485 74.1 58.2374 74.0292 58.2263 73.9584C58.2097 73.8625 58.1944 73.7667 58.1819 73.6695C58.1722 73.5973 58.1624 73.5237 58.1541 73.45C58.143 73.3528 58.1319 73.2556 58.1235 73.157C58.1166 73.0834 58.111 73.0084 58.1055 72.9348C58.0985 72.8361 58.093 72.7361 58.0888 72.6361C58.086 72.5611 58.0819 72.4861 58.0805 72.4111C58.0777 72.3084 58.0777 72.2056 58.0777 72.1028C58.0777 72.0292 58.0777 71.9556 58.0791 71.8806C58.0819 71.7736 58.0874 71.6653 58.0916 71.5556C58.0958 71.4848 58.0972 71.4153 58.1027 71.3431C58.111 71.2223 58.1222 71.1014 58.1347 70.9792C58.1402 70.9195 58.1444 70.8598 58.1513 70.8C58.1722 70.6181 58.1972 70.4348 58.2263 70.2514C58.2402 70.1598 58.2569 70.0681 58.2735 69.9778C58.4499 69.0084 58.7388 68.0667 59.1235 67.1639L55.3749 62.0542C54.9888 62.957 54.7013 63.8986 54.5249 64.8681C54.5083 64.9598 54.493 65.0514 54.4777 65.1417C54.4485 65.325 54.4235 65.5084 54.4027 65.6903C54.3958 65.75 54.3916 65.8098 54.386 65.8695C54.3735 65.9903 54.3624 66.1125 54.3541 66.2334C54.3499 66.3042 54.3472 66.375 54.343 66.4459C54.3374 66.5542 54.3319 66.6625 54.3305 66.7709C54.3291 66.8459 54.3291 66.9195 54.3291 66.9931C54.3291 67.0959 54.3291 67.1986 54.3319 67.3014C54.3333 67.3764 54.3374 67.4514 54.3402 67.5264C54.3444 67.6264 54.3499 67.725 54.3569 67.825C54.3624 67.9 54.368 67.9736 54.3749 68.0486C54.3833 68.1459 54.3944 68.2445 54.4055 68.3403C54.4138 68.4139 54.4235 68.4875 54.4333 68.5598C54.4472 68.657 54.4624 68.7528 54.4777 68.8486C54.4902 68.9195 54.5013 68.9903 54.5152 69.0611C54.5208 69.0889 54.5249 69.1167 54.5291 69.1445C54.5485 69.2417 54.5694 69.3375 54.5916 69.4334C54.5972 69.4598 54.6027 69.4875 54.6097 69.5153C54.6458 69.6681 54.6847 69.8181 54.7277 69.9681C54.7388 70.0084 54.7513 70.0487 54.7638 70.0903C54.7972 70.2014 54.8305 70.3112 54.868 70.4209C54.8833 70.4681 54.8999 70.5153 54.9166 70.5625C54.9291 70.5986 54.9402 70.6348 54.9527 70.6709C54.9666 70.7084 54.9833 70.7459 54.9972 70.7834C55.0444 70.9084 55.093 71.0306 55.1444 71.1528C55.1708 71.2139 55.1958 71.275 55.2222 71.3361C55.2819 71.4695 55.3444 71.6 55.4083 71.7292C55.4249 71.7639 55.4402 71.7986 55.4569 71.8334C55.4624 71.8431 55.468 71.8528 55.4722 71.8625C55.5527 72.0195 55.6374 72.175 55.7277 72.3264C55.7291 72.3292 55.7319 72.3334 55.7333 72.3361C55.8249 72.4917 55.9208 72.6431 56.0194 72.7931C56.0249 72.8014 56.0305 72.8111 56.036 72.8195C56.1166 72.9403 56.1999 73.0584 56.2847 73.175L60.0333 78.2848C59.9458 78.1598 59.8583 78.032 59.7722 77.9028Z" fill="#D0D5DD"/>
<path d="M60.039 78.5972C59.9431 78.5972 59.8473 78.5527 59.7862 78.4694L59.7848 78.468L56.0376 73.3597C55.9487 73.2389 55.8626 73.1152 55.7806 72.993L55.7654 72.9694C55.6543 72.8014 55.557 72.6472 55.4681 72.4944C55.4654 72.4903 55.4612 72.4819 55.4598 72.4778C55.3751 72.3319 55.289 72.1764 55.2001 72.0055C55.1931 71.9944 55.1876 71.9847 55.1834 71.975C55.1723 71.9541 55.1626 71.9319 55.1515 71.9083C55.1459 71.8958 55.139 71.8819 55.1334 71.8694C55.0598 71.7222 54.9973 71.5902 54.9418 71.4639C54.9154 71.4055 54.8904 71.3458 54.8654 71.2861C54.8084 71.15 54.757 71.0222 54.7084 70.8944C54.7029 70.8791 54.6973 70.8652 54.6918 70.8514C54.682 70.8277 54.6723 70.8027 54.6626 70.7791C54.6543 70.7569 54.6473 70.7333 54.639 70.7111L54.6251 70.668C54.6084 70.6194 54.5918 70.5708 54.5751 70.5208C54.5376 70.4083 54.5029 70.2944 54.4681 70.1805L54.4556 70.1389C54.4473 70.1111 54.439 70.0833 54.4306 70.0555C54.3862 69.8958 54.3445 69.7389 54.3098 69.5889L54.2918 69.5055C54.2681 69.4 54.2459 69.3041 54.2279 69.2083C54.2237 69.1902 54.2209 69.1722 54.2181 69.1528L54.2126 69.1208C54.2015 69.0583 54.1904 68.9958 54.1793 68.9319L54.1737 68.9014C54.157 68.8028 54.1418 68.7041 54.1279 68.6041C54.1181 68.5291 54.1084 68.4541 54.0987 68.3777C54.0876 68.2777 54.0765 68.1777 54.0668 68.0777C54.0598 68.0014 54.0529 67.925 54.0473 67.8486C54.0404 67.7472 54.0348 67.6444 54.0306 67.5416C54.0279 67.4652 54.0237 67.3875 54.0223 67.3111C54.0195 67.2055 54.0195 67.1 54.0195 66.9944V66.943C54.0195 66.8847 54.0195 66.825 54.0209 66.7653C54.0237 66.6555 54.0293 66.543 54.0348 66.4319L54.0376 66.3625C54.0404 66.3125 54.0418 66.2639 54.0459 66.2139C54.0543 66.0902 54.0668 65.9652 54.0793 65.8402L54.0848 65.7736C54.0876 65.7347 54.0918 65.6958 54.0959 65.6555C54.1181 65.4625 54.1431 65.2736 54.1723 65.093C54.1876 64.9986 54.2029 64.9055 54.2209 64.8125C54.3987 63.8375 54.6918 62.868 55.0918 61.9319C55.1362 61.8291 55.232 61.7569 55.3431 61.7444C55.4556 61.7319 55.564 61.7791 55.6306 61.8694L59.3793 66.9791C59.4445 67.068 59.4584 67.1847 59.414 67.2861C59.032 68.1791 58.7529 69.1041 58.5834 70.0333C58.5668 70.1222 58.5515 70.2111 58.5376 70.3014C58.5098 70.4722 58.4862 70.6528 58.4654 70.8361C58.4612 70.8694 58.4584 70.9041 58.4556 70.9375L58.4487 71.0111C58.4376 71.1291 58.4251 71.2472 58.4168 71.3652C58.414 71.4097 58.4112 71.4541 58.4098 71.5L58.407 71.5722C58.4015 71.6777 58.3959 71.7833 58.3945 71.8875C58.3931 71.943 58.3931 71.9972 58.3931 72.0514V72.1027C58.3931 72.2027 58.3931 72.3027 58.3959 72.4014C58.3973 72.4736 58.4015 72.5472 58.4043 72.6194C58.4084 72.7166 58.414 72.8139 58.4209 72.9097C58.4265 72.9819 58.432 73.0541 58.439 73.1264C58.4473 73.2222 58.4584 73.3166 58.4695 73.4111C58.4779 73.4819 58.4862 73.5528 58.4959 73.6236C58.5084 73.718 58.5237 73.8111 58.539 73.9041L58.5431 73.9291C58.5529 73.9902 58.564 74.05 58.5751 74.1111C58.5987 74.2333 58.6237 74.3541 58.6501 74.4736L58.6668 74.5514C58.7001 74.693 58.7376 74.8375 58.7806 74.9902L58.8154 75.1083C58.8473 75.2153 58.8806 75.3222 58.9154 75.4277C58.9306 75.4736 58.9459 75.5194 58.9626 75.5652C58.982 75.6222 59.0029 75.6778 59.0251 75.7333L59.0418 75.7791C59.0876 75.9 59.1348 76.018 59.1848 76.1361C59.2126 76.2014 59.2362 76.2583 59.2612 76.3139C59.314 76.4333 59.3723 76.5569 59.4418 76.6944L59.4709 76.7541C59.482 76.7777 59.4931 76.8014 59.5056 76.825C59.5862 76.9819 59.6695 77.1333 59.7529 77.2736C59.7543 77.2764 59.7598 77.2861 59.7612 77.2889C59.8418 77.4264 59.9334 77.5708 60.0348 77.725C60.1251 77.8597 60.2084 77.9805 60.2904 78.0916L60.2931 78.0944C60.3945 78.2333 60.3654 78.4291 60.2265 78.5305C60.1668 78.5777 60.1029 78.5972 60.039 78.5972ZM55.4584 62.6944C55.1806 63.4264 54.9723 64.175 54.8348 64.9264C54.8181 65.0152 54.8029 65.1041 54.789 65.1944C54.7612 65.3653 54.7376 65.5458 54.7168 65.7291C54.7126 65.7625 54.7098 65.7972 54.707 65.8305L54.7001 65.9041C54.689 66.0222 54.6765 66.1402 54.6681 66.2583C54.6654 66.3027 54.6626 66.3472 54.6612 66.3916L54.6584 66.4639C54.6529 66.5694 54.6473 66.675 54.6459 66.7791C54.6445 66.8347 54.6445 66.8889 54.6445 66.943V66.9944C54.6445 67.0944 54.6445 67.1944 54.6473 67.293C54.6487 67.3666 54.6529 67.4389 54.6556 67.5111C54.6598 67.6083 54.6654 67.7041 54.6723 67.8C54.6779 67.8722 54.6834 67.9444 54.6904 68.0166C54.6987 68.1111 54.7084 68.2069 54.7195 68.3C54.7279 68.3708 54.7362 68.4416 54.7459 68.5125C54.7584 68.6069 54.7737 68.7 54.789 68.793L54.7945 68.8236C54.8043 68.8819 54.814 68.9416 54.8251 69L54.839 69.0819C54.857 69.1722 54.8765 69.2625 54.8973 69.3514L54.9168 69.4416C54.9501 69.5833 54.9876 69.7305 55.0306 69.8805L55.0654 69.9986C55.0973 70.1069 55.1306 70.2125 55.1654 70.3194C55.1806 70.3652 55.1959 70.4111 55.2126 70.4569L55.2306 70.5097C55.2362 70.5277 55.2418 70.5444 55.2487 70.5625C55.2543 70.5777 55.2612 70.593 55.2668 70.6097C55.2751 70.6305 55.2834 70.6514 55.2918 70.6722C55.3376 70.7916 55.3848 70.9111 55.4348 71.0305C55.4626 71.0972 55.4862 71.1527 55.5112 71.2083C55.564 71.3264 55.6223 71.4514 55.6918 71.5889C55.7015 71.6083 55.7098 71.6264 55.7195 71.6458C55.7265 71.6597 55.732 71.675 55.7404 71.6889L55.7543 71.7139C55.839 71.8764 55.9195 72.0236 56.0029 72.1653C56.0056 72.1694 56.0098 72.1778 56.0112 72.1819C56.0918 72.318 56.182 72.4625 56.2848 72.618L56.2987 72.6402C56.3779 72.7583 56.4584 72.8736 56.5418 72.9875L58.2056 75.2569L58.2015 75.243C58.1931 75.2166 58.1848 75.1902 58.1779 75.1625C58.132 75 58.0918 74.8472 58.057 74.6958L58.039 74.6125C58.0098 74.4847 57.9834 74.3555 57.9598 74.2264C57.9473 74.1625 57.9362 74.0972 57.9265 74.0319L57.9223 74.0069C57.9056 73.9083 57.8904 73.8097 57.8765 73.7097C57.8668 73.6347 57.857 73.5597 57.8473 73.4847C57.8348 73.3847 57.8251 73.2847 57.8154 73.1833C57.8084 73.1069 57.8015 73.0305 57.7973 72.9541C57.7904 72.8527 57.7848 72.75 57.7806 72.6472C57.7779 72.5708 57.7737 72.4944 57.7723 72.4166C57.7695 72.3111 57.7695 72.2055 57.7695 72.1V72.0486C57.7695 71.9902 57.7695 71.9305 57.7709 71.8708C57.7737 71.7611 57.7793 71.6486 57.7848 71.5375L57.7876 71.468C57.7904 71.418 57.7918 71.3694 57.7959 71.3194C57.8043 71.1958 57.8168 71.0708 57.8293 70.9472L57.8348 70.8805C57.8376 70.8416 57.8418 70.8027 57.8459 70.7639C57.8681 70.5708 57.8931 70.3819 57.9223 70.2014C57.9376 70.1069 57.9529 70.0139 57.9709 69.9208C58.1376 69.0027 58.407 68.0902 58.7723 67.2055L55.4584 62.6944Z" fill="#F9FAFB"/>
<path d="M73.8678 32.5529L72.59 40.5654C72.1219 40.5404 71.6483 40.5279 71.1705 40.5279C69.8928 40.5279 68.6219 40.6182 67.3664 40.7946L68.2233 52.8723C68.5483 52.8487 68.8789 52.8362 69.2066 52.8362C69.6886 52.8362 70.1594 52.8612 70.6205 52.9126L68.7136 64.871H54.9316L55.3803 62.0571C57.1164 57.9946 60.8191 54.7446 65.1289 53.4473L64.2747 41.4001C62.2191 41.921 60.2247 42.6626 58.3247 43.5987L60.0872 32.5515H73.8678V32.5529Z" fill="#D0D5DD"/>
<path d="M68.7132 65.1835H54.9312C54.8395 65.1835 54.7534 65.1432 54.6937 65.0737C54.634 65.0043 54.609 64.9126 54.6229 64.8223L55.0715 62.0085C55.0757 61.9835 55.0826 61.9585 55.0923 61.9348C56.8132 57.9085 60.5173 54.5904 64.7993 53.2237L63.9896 41.7987C62.1062 42.3015 60.2479 43.0015 58.4618 43.8807C58.3576 43.9321 58.2326 43.921 58.1382 43.8515C58.0437 43.7821 57.9965 43.6668 58.0145 43.5501L59.777 32.5029C59.8007 32.3515 59.9326 32.239 60.0854 32.239H73.8687C73.9604 32.239 74.0465 32.2793 74.1062 32.3487C74.1659 32.4182 74.1909 32.5098 74.177 32.6001L72.8993 40.6126C72.8743 40.771 72.7354 40.8835 72.5743 40.8751C70.9771 40.789 69.3257 40.8529 67.7007 41.0626L68.5146 52.539C69.2284 52.5043 69.959 52.5237 70.6548 52.6001C70.7396 52.6098 70.8173 52.6529 70.8687 52.721C70.9201 52.789 70.9423 52.8751 70.9284 52.9598L69.0215 64.9182C68.9979 65.0723 68.8673 65.1835 68.7132 65.1835ZM55.2965 64.5585H68.4465L70.259 53.1918C69.5965 53.1376 68.9062 53.1348 68.2465 53.1835C68.1632 53.189 68.0812 53.1626 68.0187 53.1085C67.9562 53.0543 67.9173 52.9765 67.9118 52.8946L67.0548 40.8168C67.0437 40.6529 67.1604 40.5085 67.3229 40.4848C68.9868 40.2529 70.6743 40.1696 72.3243 40.2404L73.5007 32.8654H60.3507L58.7243 43.0598C60.4979 42.2279 62.3354 41.5696 64.1951 41.0987C64.2854 41.0765 64.3798 41.0946 64.4548 41.1487C64.5298 41.2029 64.577 41.2876 64.584 41.3793L65.4382 53.4265C65.4479 53.5723 65.3562 53.7057 65.2159 53.7473C61.0187 55.0098 57.3687 58.2265 55.6798 62.1446L55.2965 64.5585Z" fill="#F9FAFB"/>
<path d="M27.3601 64.8708H13.5781L17.3253 69.9806H31.1087H44.8934L41.1462 64.8708H27.3601Z" fill="#D0D5DD"/>
<path d="M44.8933 70.2931H17.3253C17.2253 70.2931 17.1322 70.2458 17.0739 70.1653L13.3253 65.0556C13.2558 64.9611 13.2447 64.8347 13.2989 64.7292C13.3516 64.6236 13.46 64.5583 13.578 64.5583H41.1461C41.2461 64.5583 41.3391 64.6056 41.3975 64.6861L45.1461 69.7959C45.2155 69.8903 45.2266 70.0167 45.1725 70.1222C45.1197 70.2278 45.0114 70.2931 44.8933 70.2931ZM17.4836 69.6681H44.2766L40.9864 65.1833H14.1947L17.4836 69.6681Z" fill="#F9FAFB"/>
<path d="M68.7126 64.8708H54.9307L58.6779 69.9806H72.4612L68.7126 64.8708Z" fill="#D0D5DD"/>
<path d="M72.4611 70.2931H58.6778C58.5778 70.2931 58.4847 70.2458 58.4264 70.1653L54.6778 65.0556C54.6084 64.9611 54.5972 64.8347 54.6514 64.7292C54.7042 64.6236 54.8125 64.5583 54.9306 64.5583H68.7139C68.8139 64.5583 68.907 64.6056 68.9653 64.6861L72.7139 69.7959C72.7834 69.8903 72.7945 70.0167 72.7403 70.1222C72.6861 70.2278 72.5792 70.2931 72.4611 70.2931ZM58.8361 69.6681H71.8445L68.5542 65.1833H55.5459L58.8361 69.6681Z" fill="#F9FAFB"/>
<path d="M89.9511 50.2611C90.065 50.443 90.1775 50.6278 90.2858 50.8139C90.3164 50.8666 90.3455 50.9194 90.3761 50.9722C90.4539 51.1083 90.5303 51.243 90.6039 51.3805C90.64 51.4472 90.6761 51.5153 90.7122 51.5833C90.7761 51.7055 90.8386 51.8278 90.9011 51.9514C90.9428 52.0361 90.9844 52.1194 91.0261 52.2041C91.0844 52.325 91.1414 52.4458 91.1969 52.568C91.2344 52.6514 91.2733 52.7347 91.3108 52.818C91.3678 52.9472 91.4219 53.0764 91.4761 53.2069C91.5094 53.2861 91.5428 53.3639 91.5747 53.443C91.6358 53.5944 91.6928 53.7472 91.7511 53.9014C91.7733 53.9611 91.7969 54.018 91.8178 54.0778C91.8428 54.1458 91.865 54.2153 91.8886 54.2833C91.9483 54.4528 92.0067 54.6222 92.0622 54.793C92.0914 54.8847 92.1178 54.9764 92.1469 55.068C92.1928 55.218 92.2386 55.3666 92.2817 55.518C92.3094 55.618 92.3358 55.7208 92.3636 55.8222C92.4025 55.9666 92.44 56.1111 92.4747 56.2583C92.4997 56.3639 92.5247 56.4708 92.5483 56.5764C92.5803 56.7208 92.6122 56.8639 92.6414 57.0097C92.6664 57.1347 92.6914 57.2597 92.715 57.3861C92.7331 57.4805 92.7497 57.575 92.7664 57.6694C92.79 57.8097 92.8122 57.9528 92.833 58.0944C92.8469 58.1847 92.8608 58.275 92.8733 58.3666C92.8942 58.5236 92.9136 58.6819 92.9317 58.8403C92.94 58.9166 92.9511 58.9944 92.9581 59.0708C92.9831 59.3069 93.0039 59.5444 93.0206 59.7819L96.7692 64.8916C96.7525 64.6528 96.7303 64.4153 96.7067 64.1805C96.6983 64.1028 96.6886 64.0264 96.6803 63.95C96.6622 63.7916 96.6442 63.6333 96.6219 63.4764C96.6094 63.3861 96.5955 63.2958 96.5817 63.2055C96.5608 63.0625 96.5386 62.9208 96.515 62.7791C96.4983 62.6847 96.4817 62.5903 96.4636 62.4958C96.4497 62.4194 96.4372 62.3416 96.4219 62.2653C96.4122 62.2166 96.3997 62.168 96.39 62.1194C96.3608 61.975 96.3289 61.8305 96.2969 61.6861C96.2733 61.5791 96.2497 61.4736 96.2233 61.368C96.1886 61.2222 96.1497 61.0778 96.1122 60.9319C96.0858 60.8305 96.0594 60.7291 96.0303 60.6278C95.9872 60.4764 95.9428 60.3278 95.8969 60.1778C95.8692 60.0861 95.8414 59.993 95.8122 59.9014C95.7567 59.7305 95.6983 59.5611 95.6386 59.393C95.6178 59.3319 95.5983 59.2708 95.5761 59.2097C95.5733 59.2014 95.5705 59.1944 95.5678 59.1875C95.5469 59.1278 95.5233 59.0708 95.5011 59.0111C95.4442 58.8569 95.3858 58.7041 95.3247 58.5528C95.2928 58.4736 95.2594 58.3972 95.2275 58.3194C95.1733 58.1889 95.1178 58.0583 95.0608 57.9291C95.0233 57.8458 94.9858 57.7625 94.9469 57.6791C94.8914 57.5569 94.8344 57.4361 94.7761 57.3153C94.7358 57.2305 94.6928 57.1458 94.6511 57.0625C94.6206 57.0014 94.5914 56.9403 94.5608 56.8791C94.5289 56.8166 94.4955 56.7555 94.4622 56.693C94.4261 56.625 94.3914 56.5569 94.3539 56.4903C94.2803 56.3528 94.2039 56.2166 94.1261 56.0819C94.0955 56.0291 94.0664 55.975 94.0358 55.9236C93.9275 55.7375 93.8164 55.5528 93.7011 55.3708C93.683 55.3416 93.6636 55.3139 93.6456 55.2847C93.565 55.1583 93.4844 55.0319 93.4011 54.9083C93.3872 54.8889 93.3733 54.8694 93.3594 54.85C93.2108 54.6305 93.0608 54.4125 92.9039 54.1986L89.1553 49.0889C89.3122 49.3028 89.4636 49.5194 89.6108 49.7403C89.708 49.8847 89.8025 50.0291 89.8956 50.1764C89.9122 50.2041 89.9317 50.2319 89.9511 50.2611Z" fill="#D0D5DD"/>
<path d="M96.7646 65.207C96.6674 65.207 96.573 65.1611 96.5132 65.0792L92.7646 59.9695C92.7299 59.9223 92.7091 59.8653 92.7049 59.807C92.6882 59.582 92.6688 59.3528 92.6424 59.1056C92.6382 59.0597 92.6327 59.0153 92.6271 58.9695L92.616 58.8778C92.598 58.7222 92.5799 58.5667 92.5591 58.4111C92.5507 58.3472 92.541 58.2847 92.5313 58.2222L92.5188 58.1431C92.498 58.0028 92.4757 57.8639 92.4521 57.725C92.4369 57.6334 92.4202 57.5417 92.4021 57.45C92.3785 57.3209 92.3549 57.1972 92.3299 57.0736C92.3007 56.9306 92.2702 56.7889 92.2382 56.6472L92.2341 56.6278C92.2119 56.5292 92.1896 56.432 92.166 56.3334C92.1313 56.1889 92.0938 56.0472 92.0563 55.9042L92.0355 55.8236C92.016 55.7514 91.9966 55.6778 91.9771 55.6056C91.9355 55.457 91.8896 55.3097 91.8452 55.1611L91.816 55.0625C91.798 55.0042 91.7813 54.9459 91.7632 54.8889C91.7091 54.7209 91.6507 54.5528 91.5924 54.3861L91.5619 54.2959C91.5494 54.2584 91.5369 54.2209 91.523 54.1847C91.5105 54.1514 91.498 54.1195 91.4855 54.0875L91.4563 54.0111C91.3994 53.8597 91.3424 53.7097 91.2827 53.5597C91.2619 53.5097 91.241 53.4584 91.2202 53.4084L91.1869 53.3278C91.1341 53.2 91.0799 53.0709 91.0243 52.9445C90.9952 52.8792 90.966 52.8139 90.9355 52.7486L90.9118 52.6986C90.8563 52.5778 90.8007 52.4584 90.7438 52.3403C90.7035 52.257 90.6619 52.1736 90.6216 52.0917C90.5605 51.9709 90.4994 51.85 90.4355 51.7292C90.4007 51.6625 90.366 51.5959 90.3299 51.5292C90.2563 51.3945 90.1813 51.2597 90.1049 51.1264L90.0688 51.0639C90.0507 51.0334 90.0341 51.0014 90.016 50.9709C89.9021 50.7764 89.7952 50.5986 89.6869 50.4264L89.6313 50.3417C89.5396 50.1973 89.4452 50.0542 89.3507 49.9125C89.1896 49.6736 89.0438 49.4639 88.9021 49.2722C88.8007 49.1334 88.8299 48.9375 88.9688 48.8347C89.1077 48.7334 89.3035 48.7625 89.4063 48.9014L93.1549 54.0111C93.3021 54.2111 93.4535 54.4278 93.6174 54.6722L93.6327 54.6931C93.6424 54.7056 93.6507 54.7181 93.6591 54.732C93.7438 54.8584 93.8257 54.9861 93.9077 55.1153L93.9646 55.2042C94.0757 55.3806 94.1896 55.5695 94.3035 55.7653C94.323 55.7986 94.3424 55.832 94.3605 55.8667L94.3952 55.9278C94.4744 56.0653 94.5507 56.2028 94.6271 56.3431C94.6646 56.4111 94.7007 56.4806 94.7369 56.5486L94.7743 56.6195C94.7952 56.6584 94.816 56.6972 94.8369 56.7361C94.8563 56.7736 94.8744 56.8111 94.8924 56.8486L94.9285 56.9223C94.9716 57.007 95.0132 57.0931 95.0549 57.1792C95.1146 57.3014 95.1716 57.425 95.2285 57.55L95.2535 57.6028C95.2841 57.6695 95.3146 57.7361 95.3438 57.8028C95.4021 57.9347 95.4577 58.0667 95.5132 58.2L95.5452 58.2764C95.5674 58.3306 95.591 58.3834 95.6119 58.4375C95.6744 58.5917 95.7327 58.7472 95.791 58.9042L95.8174 58.975C95.8313 59.0111 95.8452 59.0473 95.8591 59.0834L95.8674 59.1056C95.8813 59.1417 95.8924 59.1792 95.9049 59.2153L95.9313 59.2917C95.991 59.4625 96.0507 59.6347 96.1063 59.8084C96.1257 59.8695 96.1452 59.932 96.1632 59.9931L96.1924 60.0889C96.2382 60.2403 96.2855 60.3917 96.3285 60.5459C96.3507 60.6222 96.3702 60.7 96.391 60.7778L96.4119 60.8542C96.4507 61.0014 96.4896 61.1486 96.5257 61.2959C96.5507 61.3959 96.573 61.4972 96.5952 61.5986L96.5994 61.6195C96.6327 61.7653 96.6646 61.9111 96.6938 62.0584L96.7077 62.1195C96.7146 62.1486 96.7202 62.1778 96.7257 62.207C96.7355 62.2542 96.7438 62.3014 96.7521 62.3486L96.7688 62.4403C96.7869 62.5389 96.8049 62.6334 96.8202 62.7278C96.8452 62.8709 96.8674 63.0153 96.8882 63.1597L96.9007 63.2389C96.9105 63.3042 96.9202 63.3695 96.9299 63.4347C96.9521 63.5945 96.9702 63.7542 96.9896 63.9153L96.9994 64C97.0049 64.05 97.0119 64.0986 97.016 64.1486C97.0424 64.4028 97.0632 64.6389 97.0799 64.8709C97.0896 65.0097 97.0063 65.1389 96.8757 65.1861C96.8368 65.2 96.8007 65.207 96.7646 65.207ZM93.3216 59.6709L96.341 63.7875C96.3299 63.6972 96.3188 63.6084 96.3063 63.5195C96.298 63.457 96.2882 63.3945 96.2785 63.332L96.266 63.2514C96.2452 63.1111 96.223 62.9709 96.1994 62.832C96.1841 62.7403 96.166 62.6486 96.1494 62.5556L96.1313 62.4542C96.1244 62.4111 96.116 62.3681 96.1077 62.3264C96.1035 62.3028 96.098 62.2792 96.0924 62.2556C96.0869 62.2306 96.0813 62.207 96.0771 62.182C96.048 62.0389 96.0174 61.8972 95.9855 61.7556L95.9813 61.7347C95.9591 61.6361 95.9369 61.5389 95.9132 61.4417C95.8785 61.2972 95.841 61.1556 95.8035 61.0125L95.7827 60.9347C95.7632 60.8611 95.7438 60.7875 95.723 60.7139C95.6813 60.5653 95.6368 60.4181 95.591 60.2709L95.5605 60.1709C95.5438 60.1125 95.5257 60.0556 95.5077 59.9986C95.4535 59.8306 95.3952 59.6639 95.3369 59.4972C95.3271 59.4681 95.3174 59.4389 95.3077 59.4111C95.298 59.3792 95.2869 59.3486 95.2757 59.3167L95.2674 59.2959C95.2549 59.2611 95.2424 59.2292 95.2299 59.1972L95.2007 59.1209C95.1438 58.9695 95.0869 58.8181 95.0271 58.6695C95.0063 58.6181 94.9855 58.5681 94.9646 58.5181L94.9313 58.4403C94.8771 58.3111 94.8244 58.1834 94.7674 58.0556C94.7396 57.9917 94.7091 57.9278 94.6799 57.8639L94.6549 57.8097C94.5994 57.6903 94.5438 57.5695 94.4869 57.4514C94.4466 57.3681 94.4049 57.2847 94.3646 57.2028L94.3257 57.1236C94.3091 57.0903 94.2924 57.0556 94.2757 57.0236C94.2577 56.9875 94.2382 56.9528 94.2202 56.9167L94.1799 56.8403C94.1452 56.7736 94.1105 56.707 94.0744 56.6403C94.0007 56.5056 93.9257 56.3709 93.8494 56.2375L93.8132 56.1736C93.7966 56.1431 93.7785 56.1125 93.7605 56.082C93.6494 55.8917 93.5382 55.7084 93.4313 55.5375L93.3757 55.4528C93.2966 55.3292 93.2174 55.2042 93.1355 55.082L93.0952 55.025C92.9341 54.7861 92.7882 54.5764 92.6466 54.3834L91.8424 53.2875C91.848 53.3014 91.8535 53.3153 91.8591 53.3292C91.9202 53.4834 91.9799 53.6389 92.0382 53.7945L92.0646 53.8653C92.0785 53.9014 92.0924 53.9375 92.1063 53.975C92.1216 54.0167 92.1355 54.0584 92.1494 54.1L92.1785 54.1834C92.2382 54.3556 92.2994 54.5278 92.3549 54.7014C92.3744 54.7625 92.3938 54.825 92.4119 54.8861L92.441 54.9806C92.4869 55.132 92.5341 55.2848 92.5771 55.4375C92.598 55.5139 92.6188 55.5903 92.6382 55.6667L92.6591 55.7459C92.698 55.8931 92.7369 56.0403 92.773 56.1875C92.798 56.2889 92.8202 56.3903 92.8438 56.4917L92.848 56.5111C92.8813 56.657 92.9132 56.8028 92.9424 56.95C92.9688 57.0764 92.9924 57.2042 93.016 57.332C93.0341 57.432 93.0521 57.525 93.0674 57.6195C93.0924 57.7625 93.1146 57.907 93.1355 58.05L93.1466 58.1278C93.1563 58.1931 93.166 58.2597 93.1757 58.3264C93.198 58.4861 93.216 58.6459 93.2341 58.8056L93.2438 58.8931C93.2494 58.9417 93.2563 58.9917 93.2605 59.0403C93.2882 59.2611 93.3063 59.4681 93.3216 59.6709Z" fill="#F9FAFB"/>
<path d="M93.0151 59.7834L96.7637 64.8946L83.8873 67.7793L80.1387 62.6696L93.0151 59.7834Z" fill="#D0D5DD"/>
<path d="M83.8877 68.0917C83.7891 68.0917 83.696 68.0459 83.6363 67.964L79.8877 62.8542C79.8252 62.7695 79.8099 62.6584 79.8474 62.5598C79.8849 62.4612 79.9682 62.3876 80.071 62.3639L92.9474 59.4778C93.0696 59.4501 93.1946 59.4973 93.2682 59.5973L97.0168 64.707C97.0793 64.7917 97.0946 64.9028 97.0571 65.0014C97.0196 65.1001 96.9363 65.1737 96.8335 65.1973L83.9571 68.0834C83.9321 68.0903 83.9099 68.0917 83.8877 68.0917ZM80.6738 62.8695L84.0182 67.4292L96.2293 64.6931L92.8849 60.1334L80.6738 62.8695Z" fill="#F9FAFB"/>
<path d="M62.1833 77.0752L65.9305 82.1849L60.775 94.0905L57.0264 88.9794L62.1833 77.0752Z" fill="#D0D5DD"/>
<path d="M60.7754 94.4029C60.6767 94.4029 60.5823 94.3556 60.524 94.2751L56.7754 89.1654C56.7101 89.0765 56.6962 88.9584 56.7406 88.8556L61.8976 76.9515C61.942 76.8487 62.0379 76.7779 62.149 76.7654C62.2601 76.7529 62.3698 76.8015 62.4365 76.8918L66.1851 82.0015C66.2504 82.0904 66.2642 82.2084 66.2198 82.3112L61.0629 94.2154C61.0184 94.3181 60.9226 94.389 60.8115 94.4015C60.7976 94.4015 60.7865 94.4029 60.7754 94.4029ZM57.3851 88.939L60.7045 93.4654L65.574 82.2251L62.2545 77.6987L57.3851 88.939Z" fill="#F9FAFB"/>
<path d="M49.0836 86.3111L45.335 81.2014C48.078 84.9417 52.1238 87.7028 57.0266 88.9792L60.7752 94.0889C55.8711 92.8139 51.8266 90.0514 49.0836 86.3111Z" fill="#D0D5DD"/>
<path d="M60.7749 94.4029C60.7485 94.4029 60.7221 94.4001 60.6957 94.3931C55.7846 93.114 51.6818 90.3848 48.8304 86.4973L45.0818 81.3876C44.9804 81.2487 45.0096 81.0529 45.1485 80.9501C45.2874 80.8473 45.4832 80.8779 45.586 81.0168C48.3513 84.7862 52.3332 87.4348 57.104 88.6779C57.1735 88.6959 57.2346 88.7376 57.2777 88.7959L61.0263 93.9056C61.104 94.0126 61.1068 94.157 61.0332 94.2654C60.9735 94.3529 60.8763 94.4029 60.7749 94.4029ZM48.5499 85.057L49.3346 86.1265C51.9304 89.6654 55.5999 92.2168 59.986 93.5431L56.8401 89.2529C53.7054 88.4223 50.904 86.9973 48.5499 85.057Z" fill="#F9FAFB"/>
<mask id="mask0_746_1033" style="mask-type:luminance" maskUnits="userSpaceOnUse" x="45" y="81" width="16" height="14">
<mask id="mask1_746_1033" style="mask-type:luminance" maskUnits="userSpaceOnUse" x="45" y="81" width="16" height="14">
<path d="M49.0836 86.3111L45.335 81.2014C48.078 84.9417 52.1238 87.7028 57.0266 88.9792L60.7752 94.0889C55.8711 92.8139 51.8266 90.0514 49.0836 86.3111Z" fill="white"/>
</mask>
<g mask="url(#mask1_746_1033)">
<path d="M60.7749 94.4029C60.7485 94.4029 60.7221 94.4001 60.6957 94.3931C55.7846 93.114 51.6818 90.3848 48.8304 86.4973L45.0818 81.3876C44.9804 81.2487 45.0096 81.0529 45.1485 80.9501C45.2874 80.8473 45.4832 80.8779 45.586 81.0168C48.3513 84.7862 52.3332 87.4348 57.104 88.6779C57.1735 88.6959 57.2346 88.7376 57.2777 88.7959L61.0263 93.9056C61.104 94.0126 61.1068 94.157 61.0332 94.2654C60.9735 94.3529 60.8763 94.4029 60.7749 94.4029ZM48.5499 85.057L49.3346 86.1265C51.9304 89.6654 55.5999 92.2168 59.986 93.5431L56.8401 89.2529C53.7054 88.4223 50.904 86.9973 48.5499 85.057Z" fill="white"/>
</g>
</mask>
<g mask="url(#mask0_746_1033)">
<path d="M57.0266 88.9792L60.7752 94.0889C55.8725 92.8125 51.8266 90.0514 49.0836 86.3111L45.335 81.2014C48.078 84.9417 52.1238 87.7028 57.0266 88.9792Z" fill="#D0D5DD"/>
<path d="M60.7749 94.4029C60.7485 94.4029 60.7221 94.4001 60.6957 94.3931C55.7846 93.114 51.6818 90.3848 48.8304 86.4973L45.0818 81.3876C44.9804 81.2487 45.0096 81.0529 45.1485 80.9501C45.2874 80.8473 45.4832 80.8779 45.586 81.0168C48.3513 84.7862 52.3332 87.4348 57.104 88.6779C57.1735 88.6959 57.2346 88.7376 57.2777 88.7959L61.0263 93.9056C61.104 94.0126 61.1068 94.157 61.0332 94.2654C60.9735 94.3529 60.8763 94.4029 60.7749 94.4029ZM48.5499 85.057L49.3346 86.1265C51.9304 89.6654 55.5999 92.2168 59.986 93.5431L56.8401 89.2529C53.7054 88.4223 50.904 86.9973 48.5499 85.057Z" fill="#F9FAFB"/>
</g>
<path d="M93.0294 62.7112C92.9849 63.5126 92.8988 64.3223 92.7683 65.1459C90.6002 78.739 77.4113 89.7612 63.3183 89.7612C62.1627 89.7612 61.0391 89.6876 59.9502 89.5445L65.1891 77.4542H65.2808C72.153 77.4542 78.5933 72.2126 79.9155 65.6501L93.0294 62.7112Z" fill="#D0D5DD"/>
<path d="M63.3179 90.0737C62.1582 90.0737 61.011 90.0001 59.9082 89.8543C59.811 89.8418 59.7249 89.7834 59.6776 89.6987C59.629 89.614 59.6235 89.5098 59.6624 89.4209L64.9012 77.3306C64.9512 77.2168 65.0637 77.1418 65.1874 77.1418H65.279C72.0082 77.1418 78.3012 72.0668 79.6068 65.589C79.6318 65.4681 79.7249 65.3723 79.8443 65.3459L92.9582 62.407C93.054 62.3862 93.154 62.4098 93.229 62.4737C93.304 62.5376 93.3443 62.632 93.3387 62.7293C93.2943 63.5431 93.2054 64.3723 93.0735 65.1959C90.8887 78.9126 77.5387 90.0737 63.3179 90.0737ZM60.4012 89.2848C61.3499 89.3931 62.329 89.4487 63.3165 89.4487C77.2443 89.4487 90.3165 78.5237 92.4582 65.0959C92.5637 64.4334 92.6415 63.7668 92.6901 63.107L80.179 65.9112C78.7374 72.539 72.2971 77.7098 65.3929 77.7668L60.4012 89.2848Z" fill="#F9FAFB"/>
<path d="M94.8859 76.0306C94.9637 75.8417 95.0387 75.6501 95.1123 75.4598C95.1345 75.4015 95.1567 75.3445 95.179 75.2862C95.2706 75.0431 95.3581 74.7987 95.4415 74.5528C95.4595 74.4987 95.4776 74.4431 95.4956 74.389C95.5623 74.1917 95.6248 73.9945 95.6873 73.7959C95.7109 73.7209 95.7331 73.6459 95.7553 73.5709C95.8192 73.3584 95.8803 73.1459 95.9373 72.932C95.9484 72.8917 95.9609 72.8501 95.9706 72.8098C96.0373 72.5584 96.0998 72.3042 96.1595 72.0501C96.1748 71.9834 96.1901 71.9153 96.2053 71.8473C96.2498 71.6515 96.2915 71.4542 96.3317 71.257C96.347 71.182 96.3623 71.1084 96.3762 71.0334C96.4262 70.7751 96.472 70.5167 96.5137 70.2556C96.6442 69.4334 96.7317 68.6223 96.7748 67.8209L93.0262 62.7112C92.9817 63.5126 92.8956 64.3223 92.7651 65.1459C92.7234 65.4056 92.6762 65.6653 92.6276 65.9237C92.6137 65.9987 92.5984 66.0723 92.5831 66.1473C92.5428 66.3445 92.5012 66.5417 92.4567 66.7376C92.4414 66.8056 92.4276 66.8723 92.4109 66.9403C92.3512 67.1945 92.2887 67.4473 92.222 67.7001C92.2109 67.7403 92.1998 67.7806 92.1887 67.8223C92.1303 68.0362 92.0692 68.2487 92.0067 68.4612C91.9845 68.5362 91.9609 68.6112 91.9387 68.6862C91.8776 68.8848 91.8137 69.082 91.747 69.2792C91.729 69.3334 91.7109 69.389 91.6928 69.4431C91.6081 69.689 91.5206 69.9334 91.4303 70.1765C91.4081 70.2348 91.3859 70.2917 91.3637 70.3501C91.2901 70.5417 91.2151 70.732 91.1373 70.9209C91.1081 70.9931 91.0776 71.0653 91.0484 71.1376C90.9595 71.3487 90.8692 71.5598 90.7748 71.7681C90.7609 71.7987 90.7484 71.8292 90.7345 71.8598C90.6262 72.1001 90.5123 72.3376 90.397 72.5751C90.3651 72.639 90.3331 72.7028 90.3012 72.7681C90.2095 72.9515 90.1165 73.1334 90.022 73.3153C89.9887 73.3778 89.9567 73.4417 89.922 73.5042C89.7984 73.7362 89.6706 73.9681 89.5401 74.1973C89.522 74.2278 89.5039 74.2584 89.4873 74.289C89.372 74.4903 89.2539 74.689 89.1331 74.8876C89.0873 74.9626 89.0415 75.0376 88.9956 75.1112C88.9248 75.2265 88.8526 75.3403 88.7803 75.4542C88.729 75.5348 88.6776 75.614 88.6262 75.6945C88.5512 75.8098 88.4748 75.9237 88.3984 76.039C88.347 76.1153 88.2956 76.1917 88.2442 76.2681C88.1623 76.3876 88.0789 76.507 87.9942 76.6251C87.9456 76.6931 87.897 76.7626 87.8484 76.8306C87.747 76.9723 87.6428 77.1126 87.5387 77.2528C87.5067 77.2945 87.4762 77.3376 87.4442 77.3792C87.1831 77.7251 86.9137 78.0667 86.6373 78.4028C86.6345 78.4056 86.6331 78.4084 86.6303 78.4112C86.3526 78.7487 86.0664 79.0806 85.7734 79.407C85.7664 79.414 85.7609 79.4209 85.754 79.4278C85.4803 79.732 85.2026 80.0306 84.9165 80.3237C84.9123 80.3278 84.9081 80.3334 84.9039 80.3376C84.622 80.6278 84.3331 80.9112 84.0401 81.1903C84.0248 81.2042 84.0109 81.2181 83.9956 81.2334C83.7164 81.4987 83.4317 81.757 83.1414 82.0126C83.1151 82.0362 83.0887 82.0598 83.0623 82.0834C82.7803 82.3306 82.4928 82.5709 82.2026 82.8084C82.1678 82.8376 82.1317 82.8667 82.097 82.8945C81.804 83.1306 81.5067 83.3626 81.2053 83.589C81.1665 83.6181 81.1262 83.6487 81.0873 83.6778C80.7873 83.9015 80.4831 84.1181 80.1762 84.3306C80.1345 84.3598 80.0915 84.389 80.0498 84.4181C79.7234 84.6417 79.3928 84.8584 79.0581 85.0695C79.0178 85.0945 78.979 85.1195 78.9387 85.1445C78.6012 85.3556 78.2581 85.5598 77.9123 85.7584C77.8651 85.7848 77.8192 85.8126 77.7734 85.839C77.6387 85.9153 77.504 85.989 77.3678 86.064C77.2998 86.1015 77.2303 86.1403 77.1623 86.1765C76.9734 86.2778 76.7817 86.3778 76.5914 86.4765C76.5762 86.4848 76.5609 86.4931 76.5456 86.5015C76.3387 86.607 76.1289 86.7098 75.9206 86.8112C75.8553 86.8431 75.7901 86.8723 75.7234 86.9042C75.5789 86.9723 75.4331 87.0403 75.2873 87.107C75.2234 87.1362 75.1581 87.164 75.0942 87.1931C74.904 87.2778 74.7137 87.3612 74.522 87.4417C74.4512 87.4723 74.3803 87.5015 74.3095 87.5306C74.0651 87.632 73.8192 87.7306 73.5706 87.8265C73.5678 87.8278 73.5651 87.8292 73.5623 87.8292C73.3123 87.9251 73.0609 88.0167 72.8081 88.1056C72.7359 88.1306 72.6651 88.1556 72.5928 88.1806C72.397 88.2487 72.1998 88.314 72.0026 88.3778C71.9401 88.3973 71.8776 88.4181 71.8151 88.439C71.5164 88.5334 71.2164 88.6223 70.9137 88.7056C70.8526 88.7223 70.7901 88.739 70.7276 88.757C70.4178 88.8417 70.1081 88.9223 69.7956 88.9959C69.7762 89.0001 69.7567 89.0042 69.7387 89.0084C69.4373 89.0792 69.1331 89.1445 68.8303 89.2056C68.7748 89.2167 68.7178 89.2292 68.6623 89.2404C68.3539 89.3001 68.0456 89.3556 67.7359 89.4056C67.6734 89.4153 67.6123 89.4251 67.5498 89.4348C67.2303 89.4848 66.9095 89.5306 66.5887 89.5681C66.5776 89.5695 66.5664 89.5709 66.5553 89.5723C66.2414 89.6098 65.9248 89.6403 65.6095 89.6667C65.5498 89.6723 65.4901 89.6779 65.4303 89.682C65.1165 89.707 64.8026 89.7251 64.4873 89.739C64.4262 89.7417 64.3637 89.7431 64.3026 89.7459C63.9748 89.7584 63.6484 89.7653 63.3192 89.7653C62.1637 89.7653 61.0401 89.6917 59.9512 89.5487L63.6998 94.6584C64.7901 94.8028 65.9123 94.8751 67.0678 94.8751C67.3956 94.8751 67.7234 94.8667 68.0512 94.8556C68.1123 94.8529 68.1748 94.8515 68.2359 94.8487C68.5512 94.8348 68.8651 94.8167 69.179 94.7917C69.2387 94.7876 69.2984 94.782 69.3581 94.7765C69.6748 94.7501 69.9901 94.7195 70.3039 94.682C70.3151 94.6806 70.3262 94.6792 70.3373 94.6778C70.6581 94.639 70.979 94.5931 71.297 94.5445C71.3595 94.5348 71.422 94.5251 71.4845 94.5153C71.7942 94.4653 72.1026 94.4098 72.4095 94.3501C72.4665 94.339 72.522 94.3265 72.5789 94.3153C72.8817 94.2542 73.1845 94.189 73.4859 94.1181C73.5053 94.114 73.5262 94.1098 73.5456 94.1042C73.8567 94.0306 74.1678 93.9487 74.4762 93.8653C74.5387 93.8487 74.5998 93.832 74.6623 93.814C74.9637 93.7292 75.2637 93.6403 75.5623 93.5473C75.5803 93.5417 75.5998 93.5362 75.6178 93.5306C75.6623 93.5167 75.7067 93.5001 75.7526 93.4862C75.9498 93.4223 76.1456 93.357 76.3415 93.2903C76.4137 93.2653 76.4859 93.2404 76.5581 93.2154C76.8109 93.1265 77.0623 93.0348 77.3123 92.939C77.3165 92.9376 77.3206 92.9362 77.3248 92.9348C77.5706 92.8403 77.8151 92.7417 78.0595 92.6403C78.1303 92.6112 78.2026 92.5806 78.2734 92.5501C78.4637 92.4695 78.654 92.3876 78.8428 92.3028C78.8859 92.2834 78.929 92.2667 78.9706 92.2473C78.9928 92.2376 79.0151 92.2265 79.0373 92.2153C79.1817 92.1501 79.3262 92.082 79.4692 92.014C79.5359 91.982 79.6026 91.9515 79.6692 91.9195C79.8789 91.8181 80.0873 91.7154 80.2942 91.6098C80.3095 91.6015 80.3248 91.5931 80.3401 91.5862C80.5317 91.4876 80.722 91.389 80.9123 91.2862C80.9817 91.2487 81.0498 91.2112 81.1178 91.1737C81.254 91.1001 81.3887 91.0251 81.5234 90.9487C81.547 90.9348 81.5706 90.9237 81.5928 90.9098C81.6165 90.8959 81.6387 90.882 81.6623 90.8681C82.0081 90.6695 82.3498 90.4653 82.6873 90.2542C82.7276 90.2292 82.7678 90.2029 82.8081 90.1779C83.1428 89.9667 83.4734 89.7501 83.7984 89.5278C83.8165 89.5153 83.8345 89.5042 83.8526 89.4931C83.8776 89.4765 83.9012 89.457 83.9262 89.4403C84.2331 89.2278 84.5373 89.0112 84.8373 88.7876C84.8776 88.7584 84.9165 88.7278 84.9553 88.6987C85.2567 88.4723 85.554 88.2417 85.847 88.0042C85.8595 87.9945 85.8734 87.9834 85.8873 87.9737C85.9095 87.9556 85.9303 87.9362 85.9539 87.9181C86.2442 87.6806 86.5317 87.4403 86.8137 87.1931C86.8401 87.1695 86.8664 87.1459 86.8928 87.1223C87.1817 86.8681 87.4664 86.6084 87.7456 86.3445C87.7498 86.3403 87.7539 86.3362 87.7595 86.332C87.7706 86.3223 87.7803 86.3112 87.7915 86.3015C88.0845 86.0223 88.3734 85.739 88.6553 85.4487C88.6595 85.4445 88.6637 85.439 88.6692 85.4348C88.954 85.1417 89.2331 84.8431 89.5067 84.5403C89.5109 84.5348 89.5165 84.5306 89.5206 84.5251C89.522 84.5237 89.5234 84.5209 89.5248 84.5195C89.8178 84.1931 90.1039 83.8612 90.3817 83.5237C90.3845 83.5209 90.3859 83.5181 90.3887 83.5153C90.6651 83.1792 90.9345 82.839 91.1956 82.4917C91.1984 82.489 91.2012 82.4862 91.2026 82.482C91.2317 82.4431 91.2595 82.4042 91.2887 82.3654C91.3928 82.2251 91.497 82.0848 91.5998 81.9417C91.6484 81.8737 91.6956 81.8056 91.7442 81.7376C91.8289 81.6181 91.9123 81.4987 91.9956 81.3778C92.047 81.3028 92.0984 81.2265 92.1498 81.1501C92.2262 81.0362 92.3026 80.9209 92.3789 80.8056C92.4303 80.7265 92.4817 80.6459 92.5331 80.5653C92.6053 80.4515 92.6776 80.3376 92.7484 80.2237C92.7762 80.1792 92.8039 80.1362 92.8303 80.0931C92.8498 80.0626 92.8665 80.0306 92.8859 80.0001C93.0067 79.8015 93.1248 79.6028 93.2401 79.4015C93.2581 79.3709 93.2762 79.3404 93.2928 79.3098C93.4234 79.0806 93.5498 78.8501 93.6748 78.6167C93.7081 78.5542 93.7415 78.4903 93.7748 78.4278C93.8692 78.2459 93.9623 78.064 94.0539 77.8806C94.0859 77.8167 94.1178 77.7528 94.1498 77.6876C94.2651 77.4501 94.3776 77.2126 94.4873 76.9723C94.4901 76.9667 94.4928 76.9612 94.4956 76.9556C94.5067 76.9306 94.5165 76.9056 94.5276 76.8806C94.622 76.6709 94.7123 76.4612 94.8012 76.2501C94.8276 76.1751 94.8567 76.1028 94.8859 76.0306Z" fill="#D0D5DD"/>
<path d="M67.0655 95.1835C65.9057 95.1835 64.7585 95.1099 63.6557 94.964C63.571 94.9529 63.4946 94.9071 63.4446 94.839L59.696 89.7293C59.6224 89.6279 59.6155 89.4932 59.6794 89.3849C59.7432 89.2765 59.8655 89.2182 59.9891 89.2349C61.0655 89.3765 62.1863 89.4488 63.3169 89.4488C63.6085 89.4488 63.9169 89.4432 64.2891 89.4293L64.4724 89.4224C64.7835 89.4085 65.0974 89.3904 65.4044 89.3668L65.5821 89.3515C65.9252 89.3224 66.2307 89.2918 66.5182 89.2585C66.5196 89.2585 66.5335 89.2571 66.5349 89.2571L66.5516 89.2557C66.8363 89.221 67.1474 89.1779 67.5016 89.1238L67.6849 89.0946C67.9919 89.0446 68.3002 88.9904 68.6016 88.9307L68.7682 88.8974C69.0919 88.8321 69.3863 88.7682 69.6669 88.7015L69.7238 88.689C70.0057 88.6224 70.3071 88.5446 70.6446 88.4529L70.828 88.4029C71.1335 88.3182 71.4335 88.2279 71.7196 88.139L71.9057 88.0793C72.1016 88.0168 72.296 87.9515 72.4891 87.8849L72.503 87.8807C72.5696 87.8585 72.6363 87.8349 72.703 87.8113C72.9891 87.7099 73.2266 87.6224 73.4502 87.5377C73.6794 87.4502 73.9182 87.3543 74.1891 87.2418C74.2544 87.2154 74.3182 87.1877 74.3835 87.1599L74.3988 87.1529C74.5891 87.0724 74.778 86.9904 74.9655 86.9071L75.0349 86.8765C75.0752 86.8585 75.1169 86.8404 75.1571 86.8224C75.3016 86.7571 75.446 86.689 75.5891 86.621L75.671 86.5821C75.7085 86.564 75.746 86.5474 75.7835 86.5293C75.9905 86.4293 76.1974 86.3279 76.403 86.2224L76.4488 86.1988C76.6391 86.1015 76.828 86.0029 77.0155 85.9015C77.0585 85.8779 77.1016 85.8543 77.1446 85.8307L77.2196 85.789C77.3544 85.7154 77.4877 85.6418 77.621 85.5668L77.7585 85.4877C78.1071 85.2877 78.4488 85.0835 78.7752 84.8793L78.8946 84.8043C79.2294 84.5932 79.5585 84.3765 79.8766 84.1599L80.0016 84.0738C80.3141 83.8571 80.6182 83.6404 80.9044 83.4279L81.0224 83.339C81.328 83.1099 81.6252 82.8779 81.9057 82.6515L82.0099 82.5654C82.3169 82.3154 82.596 82.0807 82.8613 81.8474L82.9405 81.7765C83.2432 81.5099 83.5196 81.2585 83.7849 81.0057L83.828 80.964C84.128 80.6793 84.4155 80.3946 84.6835 80.1196L84.921 80.3238L84.6974 80.1057C84.9766 79.8182 85.2557 79.5196 85.5266 79.2196C85.528 79.2182 85.5363 79.2085 85.5377 79.2071C85.8349 78.8752 86.121 78.5446 86.3946 78.2127C86.6724 77.8752 86.9405 77.5349 87.1988 77.1918L87.2918 77.0668C87.3946 76.9279 87.4974 76.789 87.5988 76.6488C87.6307 76.6057 87.6613 76.5613 87.6918 76.5168L87.7432 76.4446C87.8266 76.3265 87.9085 76.2099 87.9905 76.0904C88.0321 76.0307 88.0724 75.9696 88.1127 75.9085L88.1432 75.864C88.2196 75.7501 88.2946 75.6377 88.3696 75.5238C88.421 75.4446 88.471 75.3654 88.5224 75.2863C88.5946 75.1738 88.6655 75.0599 88.7363 74.9474C88.7821 74.8738 88.828 74.8002 88.8724 74.7252C88.9918 74.5293 89.1085 74.3321 89.2224 74.1335L89.2752 74.0432C89.3974 73.8293 89.521 73.6043 89.653 73.3585L89.7516 73.171C89.846 72.9918 89.9377 72.8113 90.028 72.6307L90.1224 72.4404C90.246 72.1877 90.3544 71.9557 90.4557 71.7335L90.496 71.6432C90.5891 71.4363 90.6794 71.2279 90.7669 71.0196C90.796 70.9488 90.8252 70.8779 90.8544 70.8057C90.9307 70.6182 91.0057 70.4307 91.078 70.2404L91.1043 70.171C91.1168 70.1377 91.1307 70.1029 91.1432 70.0696C91.2335 69.8293 91.321 69.5849 91.403 69.3446L91.4571 69.1821C91.5224 68.9877 91.5849 68.7918 91.646 68.5946C91.6682 68.521 91.6919 68.446 91.7141 68.3724C91.7766 68.1627 91.8377 67.9515 91.8946 67.7404L91.928 67.6196C91.9918 67.3807 92.053 67.1363 92.1155 66.8696C92.1252 66.8265 92.1349 66.7835 92.1446 66.7404L92.1599 66.6696C92.203 66.4765 92.2446 66.2821 92.2849 66.0863L92.2946 66.0404C92.3057 65.9821 92.3182 65.9238 92.3293 65.8654C92.3849 65.5779 92.4293 65.3279 92.4655 65.0974C92.5932 64.296 92.6794 63.4877 92.7238 62.696C92.7307 62.564 92.8196 62.4515 92.946 62.414C93.0724 62.3765 93.2085 62.4224 93.2877 62.5293L97.0363 67.639C97.0794 67.6974 97.1002 67.7682 97.096 67.8404C97.0516 68.6543 96.9627 69.4849 96.8307 70.3071C96.7932 70.5432 96.7474 70.8002 96.6919 71.0932C96.6807 71.1515 96.6682 71.2099 96.6571 71.2682L96.6474 71.3182C96.6071 71.5182 96.5641 71.7168 96.5196 71.9154L96.5044 71.9849C96.4946 72.0293 96.4849 72.0752 96.4738 72.1196C96.4099 72.3932 96.3474 72.6446 96.2821 72.889L96.2474 73.0127C96.1891 73.2293 96.1266 73.4446 96.0627 73.6599C96.0405 73.7363 96.0169 73.8113 95.9932 73.8877C95.9307 74.089 95.8669 74.289 95.8002 74.4877L95.7446 74.6543C95.6599 74.9002 95.571 75.1502 95.478 75.3974C95.4641 75.4335 95.4502 75.4696 95.4363 75.5057L95.4099 75.5724C95.3363 75.7654 95.2599 75.9585 95.1807 76.1502C95.1516 76.2238 95.121 76.296 95.0905 76.3682C95.0002 76.5821 94.9085 76.7946 94.8141 77.0071L94.7807 77.0835C94.7794 77.0863 94.7752 77.0974 94.7738 77.0988C94.6696 77.3279 94.5585 77.5654 94.4321 77.8238L94.3349 78.0182C94.2432 78.2029 94.1488 78.3877 94.053 78.571L93.953 78.7627C93.8182 79.0154 93.6919 79.2446 93.5669 79.4627L93.5127 79.5543C93.396 79.7571 93.2766 79.9585 93.1557 80.1585L93.1002 80.2529C93.0849 80.2779 93.0682 80.3043 93.053 80.3293L93.0182 80.3849C92.946 80.5002 92.8738 80.6154 92.8002 80.7307C92.7488 80.8113 92.696 80.8932 92.6432 80.9738C92.5669 81.0904 92.4905 81.2057 92.4127 81.3224L92.3752 81.3779C92.3363 81.4363 92.296 81.4946 92.2571 81.5529C92.1738 81.6738 92.0891 81.7946 92.003 81.9154L91.953 81.9863C91.921 82.0321 91.8891 82.0765 91.8571 82.121C91.7543 82.264 91.6488 82.4071 91.5432 82.5488L91.4557 82.6668C91.453 82.6696 91.4474 82.6779 91.4446 82.6807C91.1835 83.0252 90.9099 83.3738 90.6335 83.7099C90.6321 83.7127 90.6238 83.7224 90.6224 83.7238C90.3502 84.0557 90.0585 84.3932 89.7613 84.7238L89.7418 84.746C89.4669 85.0529 89.1821 85.3571 88.8974 85.6502L88.8835 85.664C88.6085 85.946 88.3155 86.2363 88.0113 86.5252L87.9794 86.5571C87.978 86.5585 87.9682 86.5682 87.9655 86.5696C87.696 86.8252 87.4141 87.0821 87.1044 87.3557L87.0238 87.4265C86.7516 87.664 86.4599 87.9113 86.1557 88.1585L86.0474 88.2474C85.7627 88.4779 85.4599 88.714 85.1474 88.9474L85.028 89.0377C84.7349 89.2557 84.4252 89.4779 84.1085 89.696L84.0793 89.7168C84.0641 89.7279 84.0488 89.739 84.0335 89.7488C84.021 89.7571 84.0099 89.7654 83.9974 89.7724L83.9794 89.7849C83.6599 90.0029 83.3238 90.2238 82.9794 90.4418L82.8571 90.5196C82.5252 90.7279 82.1766 90.9363 81.821 91.139L81.7932 91.1557C81.7794 91.164 81.7655 91.1724 81.7502 91.1807L81.6794 91.2196C81.5432 91.2974 81.4071 91.3724 81.2696 91.4474L81.1946 91.489C81.1502 91.514 81.1071 91.5377 81.0627 91.5613C80.871 91.664 80.6794 91.7654 80.4849 91.864L80.4391 91.889C80.2294 91.996 80.0196 92.1001 79.8071 92.2015C79.7655 92.2224 79.7224 92.2418 79.6793 92.2626L79.6044 92.2974C79.4599 92.3654 79.3141 92.4349 79.1682 92.5002L79.1002 92.5321C79.0752 92.5432 79.0502 92.5543 79.0252 92.5654L78.971 92.589C78.7807 92.6738 78.5891 92.7571 78.396 92.839L78.3418 92.8613C78.2877 92.8835 78.2335 92.9071 78.1794 92.9293C77.8988 93.046 77.6627 93.1404 77.4377 93.2265C77.196 93.3196 76.946 93.4113 76.6641 93.5099C76.5988 93.5335 76.5335 93.5557 76.4669 93.5779L76.4446 93.5863C76.2474 93.6543 76.0488 93.7196 75.8502 93.7849L75.7919 93.8043C75.7655 93.8127 75.7405 93.8224 75.7141 93.8307L75.6571 93.8474C75.3669 93.939 75.0613 94.0293 74.7474 94.1168L74.5585 94.1682C74.2127 94.2627 73.9044 94.3418 73.6182 94.4099L73.5585 94.4238C73.2696 94.4918 72.9696 94.5571 72.6419 94.6238L72.4696 94.6585C72.1682 94.7182 71.853 94.7738 71.5349 94.8251L71.346 94.8543C70.9863 94.9099 70.6696 94.9543 70.3752 94.989L70.3488 94.9918C70.0474 95.0279 69.7349 95.0585 69.3849 95.0877L69.203 95.1029C68.8891 95.1279 68.5682 95.146 68.2488 95.1599L68.0613 95.1668C67.6821 95.1779 67.3668 95.1835 67.0655 95.1835ZM63.8696 94.3613C64.9057 94.4918 65.9794 94.5585 67.0655 94.5585C67.3585 94.5585 67.6669 94.5529 68.0377 94.539L68.221 94.5321C68.5321 94.5182 68.846 94.5001 69.153 94.4765L69.3307 94.4613C69.6738 94.4321 69.9794 94.4015 70.2669 94.3682C70.2682 94.3682 70.2807 94.3668 70.2821 94.3668L70.2988 94.3654C70.5863 94.3307 70.896 94.2876 71.2488 94.2335L71.4335 94.2043C71.746 94.1543 72.0544 94.0988 72.3488 94.0404L72.5168 94.0057C72.8377 93.9404 73.1321 93.8765 73.4127 93.8113L73.4724 93.7974C73.7502 93.7307 74.0516 93.6543 74.3918 93.5613L74.5766 93.5113C74.8835 93.4252 75.1821 93.3363 75.4669 93.2474L75.521 93.2307C75.5432 93.2238 75.5655 93.2168 75.5863 93.2085L75.6544 93.1863C75.8488 93.1238 76.0432 93.0585 76.2363 92.9918L76.2599 92.9835C76.3238 92.9613 76.3877 92.9404 76.4516 92.9168C76.7294 92.8196 76.9724 92.7293 77.1974 92.6432C77.4294 92.5543 77.6599 92.4613 77.9363 92.3474L78.1474 92.2585C78.3363 92.1793 78.5238 92.0974 78.7113 92.014L78.7752 91.9863C78.796 91.9765 78.8169 91.9682 78.8391 91.9585L78.9071 91.9265C79.0488 91.8613 79.1919 91.7946 79.3335 91.7279L79.4113 91.6918C79.4516 91.6724 79.4918 91.6543 79.5321 91.6349C79.7405 91.5349 79.946 91.4335 80.1516 91.3279L80.1974 91.3029C80.3863 91.2057 80.5752 91.1071 80.7627 91.0057C80.8044 90.9835 80.8474 90.9599 80.8891 90.9363L80.9669 90.8932C81.1016 90.8196 81.2349 90.746 81.3682 90.671L81.4641 90.6168C81.478 90.6085 81.4919 90.6002 81.5071 90.5918C81.8544 90.3918 82.196 90.1877 82.5224 89.9849L82.6419 89.9099C82.9794 89.6974 83.3099 89.4807 83.6224 89.2654L83.7488 89.1779C84.0599 88.9627 84.3627 88.746 84.6516 88.5321L84.7682 88.4432C85.0738 88.214 85.371 87.9821 85.6516 87.7557L85.7557 87.6696C86.0543 87.4265 86.3405 87.1849 86.6071 86.9515L86.6863 86.8821C86.9905 86.614 87.2669 86.3627 87.5307 86.1113C87.5321 86.1099 87.5405 86.1029 87.5432 86.1002L87.5752 86.0682C87.8738 85.7849 88.1613 85.5002 88.4307 85.2238L88.4474 85.2071C88.7238 84.9224 89.003 84.6252 89.2724 84.3238C89.2752 84.321 89.2821 84.3127 89.2849 84.3099C89.5821 83.9779 89.8682 83.6474 90.1405 83.3154C90.4182 82.9779 90.6877 82.6377 90.946 82.2946C90.9474 82.2918 90.953 82.2863 90.9543 82.2835L91.0377 82.1696C91.1419 82.0307 91.2446 81.8918 91.3446 81.7515C91.3752 81.7085 91.4057 81.6654 91.4363 81.6224L91.4877 81.5488C91.571 81.4307 91.6543 81.3127 91.7363 81.1932C91.7752 81.1363 91.8127 81.0793 91.8516 81.0238L91.8891 80.9682C91.9655 80.8543 92.0405 80.7418 92.1155 80.6265C92.1669 80.5474 92.2182 80.4682 92.2682 80.389C92.3405 80.2765 92.4113 80.164 92.4807 80.0502L92.6169 79.8279C92.7349 79.6321 92.8516 79.4349 92.9669 79.2363L93.0196 79.146C93.1405 78.9335 93.2641 78.7085 93.3974 78.4613L93.496 78.2738C93.5905 78.0946 93.6821 77.914 93.7724 77.7335L93.8669 77.5432C93.9905 77.2904 94.0988 77.0585 94.2002 76.8363C94.2016 76.8335 94.2057 76.8238 94.2071 76.821L94.2405 76.746C94.3335 76.539 94.4238 76.3307 94.5113 76.1224C94.5405 76.0515 94.5696 75.9807 94.5988 75.9085C94.6752 75.721 94.7502 75.5335 94.8224 75.3446L94.8488 75.2752C94.8613 75.2418 94.8752 75.2071 94.8877 75.1738C94.978 74.9335 95.0655 74.689 95.1474 74.4488L95.2016 74.2863C95.2669 74.0918 95.3293 73.896 95.3905 73.6988C95.4127 73.6252 95.4363 73.5502 95.4585 73.4765C95.521 73.2668 95.5807 73.0571 95.6391 72.846L95.6724 72.7252C95.7363 72.4877 95.7974 72.2418 95.8599 71.9752L95.9044 71.7752C95.9474 71.5821 95.9891 71.3877 96.0294 71.1918L96.0391 71.1404C96.0502 71.0835 96.0613 71.0279 96.0724 70.971C96.128 70.6849 96.1724 70.4335 96.2085 70.2029C96.3307 69.439 96.4155 68.6696 96.4599 67.9127L93.2794 63.5765C93.2307 64.114 93.1627 64.6543 93.0766 65.1904C93.0391 65.4265 92.9932 65.6835 92.9377 65.9765C92.9266 66.0363 92.9141 66.0974 92.9016 66.1585L92.8932 66.2029C92.853 66.4029 92.8099 66.6015 92.7655 66.8002L92.7502 66.8696C92.7405 66.9154 92.7294 66.9599 92.7196 67.0057C92.6557 67.2779 92.5932 67.5293 92.528 67.7752L92.4932 67.8988C92.4349 68.1154 92.3724 68.3307 92.3085 68.546C92.2863 68.6224 92.2627 68.6974 92.2391 68.7738C92.1766 68.9752 92.1127 69.1752 92.046 69.3752L91.9905 69.5418C91.9057 69.7877 91.8169 70.0377 91.7238 70.2849C91.7099 70.321 91.696 70.3571 91.6821 70.3932L91.6557 70.4599C91.5821 70.6529 91.5057 70.846 91.4266 71.0377C91.3974 71.1113 91.3668 71.1835 91.3363 71.2557C91.246 71.4696 91.1543 71.6821 91.0599 71.8946L91.0196 71.9877C90.9155 72.2154 90.8043 72.4529 90.678 72.7113L90.5807 72.9057C90.4891 73.0904 90.3946 73.2752 90.2988 73.4585L90.2682 73.5168C90.2446 73.5613 90.221 73.6057 90.1974 73.6502C90.0627 73.9015 89.9363 74.1307 89.8113 74.3502L89.7571 74.4418C89.6405 74.6446 89.521 74.846 89.4002 75.0474C89.3544 75.1238 89.3071 75.1988 89.2613 75.2738C89.1891 75.389 89.1169 75.5057 89.0432 75.621C88.9919 75.7015 88.9391 75.7821 88.8877 75.8627C88.8113 75.9793 88.7349 76.0946 88.6571 76.2099L88.628 76.2543C88.5863 76.3168 88.5446 76.3793 88.5016 76.4418C88.4182 76.5627 88.3335 76.6821 88.2488 76.8029L88.1988 76.8738C88.1669 76.9196 88.1349 76.9654 88.1016 77.0113C87.9988 77.1543 87.8932 77.296 87.7877 77.4377L87.6932 77.5654C87.4293 77.9154 87.1557 78.2627 86.878 78.5988C86.8766 78.6001 86.8682 78.6099 86.8668 78.6113C86.5918 78.9446 86.3002 79.2835 86.0044 79.6127L85.9905 79.6279C85.7099 79.9404 85.4252 80.2446 85.1405 80.5377C85.1405 80.5377 85.128 80.5515 85.1266 80.5515C84.853 80.8321 84.5599 81.1224 84.2543 81.4127L84.2099 81.4557C83.9391 81.7127 83.6571 81.9696 83.3488 82.2418L83.2682 82.3127C82.996 82.5502 82.7127 82.7904 82.4002 83.0446L82.2932 83.1321C82.0071 83.3627 81.7044 83.5988 81.3919 83.8335L81.2724 83.9238C80.9807 84.1404 80.671 84.3627 80.353 84.5835L80.2252 84.6724C79.9016 84.8932 79.5655 85.1154 79.2238 85.3293L79.103 85.4057C78.771 85.614 78.4224 85.8224 78.0669 86.0265L77.9266 86.1071C77.7905 86.1835 77.6543 86.2599 77.5168 86.3349L77.4446 86.3752C77.3988 86.4002 77.3543 86.4252 77.3085 86.4502C77.1168 86.5529 76.9252 86.6543 76.7307 86.7529L76.6835 86.7779C76.4738 86.8849 76.2641 86.989 76.0516 87.0904C76.0113 87.1099 75.9724 87.1279 75.9321 87.1474L75.853 87.1849C75.7057 87.2543 75.5599 87.3238 75.4127 87.3904C75.371 87.4099 75.328 87.4279 75.2849 87.4474L75.2169 87.4779C75.0252 87.564 74.8321 87.6474 74.6391 87.7293L74.6238 87.7363C74.5571 87.764 74.4919 87.7918 74.4252 87.8196C74.1488 87.9335 73.9044 88.0321 73.6794 88.1182C73.4432 88.2085 73.2016 88.2974 72.9085 88.4002C72.8405 88.4238 72.7724 88.4474 72.7044 88.471L72.6946 88.4724C72.4974 88.5404 72.2974 88.6071 72.0988 88.671L71.9099 88.7321C71.6169 88.8238 71.3099 88.9154 70.9988 89.0015L70.8113 89.0529C70.4669 89.1474 70.1599 89.2265 69.8696 89.2946L69.8113 89.3071C69.5238 89.3752 69.2224 89.4404 68.8932 89.5071L68.7238 89.5418C68.4155 89.6015 68.1016 89.6585 67.7863 89.7085L67.5988 89.7377C67.2377 89.7932 66.9196 89.8377 66.6266 89.8724L66.6002 89.8751C66.2988 89.9113 65.9863 89.9418 65.6363 89.971L65.4544 89.9863C65.1405 90.0113 64.8196 90.0293 64.5002 90.0432L64.3127 90.0502C63.9335 90.064 63.6182 90.0696 63.3182 90.0696C62.4085 90.0696 61.5057 90.0238 60.6266 89.9335L63.8696 94.3613Z" fill="#F9FAFB"/>
<path d="M64.2742 41.4014L65.1283 53.4486C60.8186 54.7458 57.1158 57.9958 55.3797 62.0583C54.9936 62.9597 54.7061 63.9028 54.5297 64.8722C54.5131 64.9639 54.4978 65.0555 54.4825 65.1458C53.5658 70.8903 56.8783 75.7208 62.1839 77.0764L57.0269 88.9805C46.4714 86.2333 39.8922 76.6028 41.72 65.1458C41.7339 65.0541 41.7492 64.9625 41.7658 64.8722C43.3297 55.7139 49.8853 47.7569 58.3242 43.6014C60.2228 42.6639 62.2186 41.9222 64.2742 41.4014Z" fill="#D0D5DD"/>
<path d="M57.0265 89.2917C57.0001 89.2917 56.9737 89.2889 56.9474 89.282C45.9835 86.4278 39.5946 76.482 41.4099 65.0959C41.4251 65.0028 41.4404 64.9111 41.4557 64.8181C42.9807 55.8875 49.3904 47.65 58.1835 43.3195C60.1224 42.3639 62.146 41.6167 64.196 41.0986C64.2862 41.0764 64.3807 41.0945 64.4557 41.1486C64.5307 41.2028 64.5779 41.2875 64.5849 41.3792L65.439 53.4264C65.4488 53.5723 65.3571 53.7056 65.2168 53.7472C61.0071 55.0139 57.3474 58.2459 55.6654 62.1806C55.2835 63.0736 55.0043 63.9986 54.8349 64.9278C54.8182 65.0167 54.8029 65.1056 54.789 65.1959C53.9168 70.6667 56.989 75.4278 62.2599 76.7736C62.3487 76.7959 62.4224 76.857 62.4626 76.9389C62.5029 77.0209 62.5057 77.1167 62.4682 77.2014L57.3112 89.1056C57.2626 89.2209 57.1488 89.2917 57.0265 89.2917ZM63.9876 41.7986C62.1043 42.3014 60.246 43.0014 58.4599 43.8806C49.8432 48.1236 43.564 56.1875 42.0724 64.9236C42.0571 65.0139 42.0418 65.1042 42.0279 65.1945C40.2793 76.1611 46.364 85.75 56.8474 88.6084L61.7529 77.282C56.3724 75.7334 53.2668 70.775 54.1724 65.0959C54.1876 65.0028 54.2029 64.9084 54.221 64.8153C54.3987 63.8403 54.6918 62.8709 55.0918 61.9348C56.8126 57.9084 60.5168 54.5903 64.7988 53.2236L63.9876 41.7986Z" fill="#F9FAFB"/>
<path d="M78.1963 57.1167L81.9449 62.2265C80.2629 59.9334 77.6004 58.3751 74.3685 58.0223C73.9088 57.9723 73.4365 57.9459 72.9546 57.9459C72.6268 57.9459 72.2963 57.957 71.9713 57.982L68.2227 52.8723C68.5477 52.8487 68.8782 52.8362 69.206 52.8362C69.6879 52.8362 70.1588 52.8612 70.6199 52.9126C73.8518 53.2653 76.5143 54.8223 78.1963 57.1167Z" fill="#D0D5DD"/>
<path d="M81.9445 62.539C81.8486 62.539 81.7528 62.4945 81.6917 62.4112L81.6903 62.4098C80.007 60.1154 77.3945 58.6682 74.3334 58.3334C73.5723 58.2501 72.7639 58.2376 71.9931 58.2945C71.8862 58.3015 71.782 58.2543 71.7181 58.1682L67.9695 53.0584C67.9028 52.9668 67.8903 52.8459 67.9375 52.7432C67.9848 52.6404 68.0848 52.5709 68.1986 52.5626C69.007 52.5043 69.8528 52.5168 70.6514 52.6043C73.8889 52.957 76.657 54.4945 78.4459 56.9334L82.1945 62.0432C82.2959 62.182 82.2667 62.3779 82.1278 62.4807C82.0736 62.5195 82.0084 62.539 81.9445 62.539ZM72.9542 57.6334C73.4417 57.6334 73.9292 57.6598 74.4014 57.7112C76.3375 57.9223 78.1056 58.557 79.5973 59.5557L77.9431 57.3001C76.2598 55.0043 73.6459 53.5557 70.5848 53.2223C70.0098 53.1598 69.4098 53.1362 68.8167 53.1543L72.1209 57.6584C72.3973 57.6418 72.6764 57.6334 72.9542 57.6334Z" fill="#F9FAFB"/>
<mask id="mask2_746_1033" style="mask-type:luminance" maskUnits="userSpaceOnUse" x="68" y="52" width="14" height="11">
<mask id="mask3_746_1033" style="mask-type:luminance" maskUnits="userSpaceOnUse" x="68" y="52" width="14" height="11">
<path d="M78.1963 57.1167L81.9449 62.2265C80.2629 59.9334 77.6004 58.3751 74.3685 58.0223C73.9088 57.9723 73.4365 57.9459 72.9546 57.9459C72.6268 57.9459 72.2963 57.957 71.9713 57.982L68.2227 52.8723C68.5477 52.8487 68.8782 52.8362 69.206 52.8362C69.6879 52.8362 70.1588 52.8612 70.6199 52.9126C73.8518 53.2653 76.5143 54.8223 78.1963 57.1167Z" fill="white"/>
</mask>
<g mask="url(#mask3_746_1033)">
<path d="M81.9445 62.539C81.8486 62.539 81.7528 62.4945 81.6917 62.4112L81.6903 62.4098C80.007 60.1154 77.3945 58.6682 74.3334 58.3334C73.5723 58.2501 72.7639 58.2376 71.9931 58.2945C71.8862 58.3015 71.782 58.2543 71.7181 58.1682L67.9695 53.0584C67.9028 52.9668 67.8903 52.8459 67.9375 52.7432C67.9848 52.6404 68.0848 52.5709 68.1986 52.5626C69.007 52.5043 69.8528 52.5168 70.6514 52.6043C73.8889 52.957 76.657 54.4945 78.4459 56.9334L82.1945 62.0432C82.2959 62.182 82.2667 62.3779 82.1278 62.4807C82.0736 62.5195 82.0084 62.539 81.9445 62.539ZM72.9542 57.6334C73.4417 57.6334 73.9292 57.6598 74.4014 57.7112C76.3375 57.9223 78.1056 58.557 79.5973 59.5557L77.9431 57.3001C76.2598 55.0043 73.6459 53.5557 70.5848 53.2223C70.0098 53.1598 69.4098 53.1362 68.8167 53.1543L72.1209 57.6584C72.3973 57.6418 72.6764 57.6334 72.9542 57.6334Z" fill="white"/>
</g>
</mask>
<g mask="url(#mask2_746_1033)">
<path d="M78.1963 57.1167L81.9449 62.2265C80.2629 59.9334 77.6004 58.3751 74.3685 58.0223C73.9088 57.9723 73.4365 57.9459 72.9546 57.9459C72.6268 57.9459 72.2963 57.957 71.9713 57.982L68.2227 52.8723C68.5477 52.8487 68.8782 52.8362 69.206 52.8362C69.6879 52.8362 70.1588 52.8612 70.6199 52.9126C73.8518 53.2653 76.5143 54.8223 78.1963 57.1167Z" fill="#D0D5DD"/>
<path d="M81.9445 62.539C81.8486 62.539 81.7528 62.4945 81.6917 62.4112L81.6903 62.4098C80.007 60.1154 77.3945 58.6682 74.3334 58.3334C73.5723 58.2501 72.7639 58.2376 71.9931 58.2945C71.8862 58.3015 71.782 58.2543 71.7181 58.1682L67.9695 53.0584C67.9028 52.9668 67.8903 52.8459 67.9375 52.7432C67.9848 52.6404 68.0848 52.5709 68.1986 52.5626C69.007 52.5043 69.8528 52.5168 70.6514 52.6043C73.8889 52.957 76.657 54.4945 78.4459 56.9334L82.1945 62.0432C82.2959 62.182 82.2667 62.3779 82.1278 62.4807C82.0736 62.5195 82.0084 62.539 81.9445 62.539ZM72.9542 57.6334C73.4417 57.6334 73.9292 57.6598 74.4014 57.7112C76.3375 57.9223 78.1056 58.557 79.5973 59.5557L77.9431 57.3001C76.2598 55.0043 73.6459 53.5557 70.5848 53.2223C70.0098 53.1598 69.4098 53.1362 68.8167 53.1543L72.1209 57.6584C72.3973 57.6418 72.6764 57.6334 72.9542 57.6334Z" fill="#F9FAFB"/>
</g>
<path d="M71.1694 40.5278C71.6472 40.5278 72.1208 40.5403 72.5888 40.5653C84.0402 41.1778 92.2652 49.1973 93.0152 59.7834L80.1388 62.6695C79.8722 57.4973 76.0486 53.5042 70.6194 52.9126C70.1597 52.8626 69.6875 52.8362 69.2055 52.8362C68.8777 52.8362 68.5472 52.8473 68.2222 52.8723L67.3652 40.7945C68.6208 40.6181 69.8916 40.5278 71.1694 40.5278Z" fill="#98A2B3"/>
<path d="M80.1392 62.9819C80.0711 62.9819 80.0044 62.9597 79.9503 62.918C79.8767 62.8625 79.8322 62.7778 79.8267 62.6847C79.5642 57.5986 75.8503 53.7958 70.5864 53.2222C69.8253 53.1389 69.0169 53.1264 68.2461 53.1833C68.1628 53.1889 68.0808 53.1625 68.0183 53.1083C67.9558 53.0541 67.9169 52.9764 67.9114 52.8944L67.0544 40.8166C67.0433 40.6528 67.16 40.5083 67.3225 40.4847C69.0808 40.2389 70.8739 40.1611 72.6058 40.2541C84.035 40.8666 92.5572 48.8889 93.3267 59.7625C93.3378 59.9166 93.2336 60.0555 93.0836 60.0889L80.2072 62.975C80.185 62.9791 80.1614 62.9819 80.1392 62.9819ZM69.2072 52.5236C69.6947 52.5236 70.1822 52.55 70.6544 52.6014C73.3822 52.8986 75.7628 54.025 77.5392 55.8555C79.2253 57.593 80.2183 59.8097 80.4253 62.2847L92.6822 59.5375C91.8142 49.1236 83.5822 41.4666 72.5711 40.8764C70.9739 40.7902 69.3225 40.8541 67.6975 41.0639L68.5114 52.5402C68.7433 52.5291 68.9753 52.5236 69.2072 52.5236Z" fill="#F9FAFB"/>
<path d="M95.652 6.29157C94.3631 4.82213 92.4825 4.0874 90.4839 4.0874C88.4867 4.0874 86.3714 4.82213 84.6131 6.29157C82.8534 7.7624 81.7839 9.69018 81.4756 11.6166C81.1673 13.5443 81.6228 15.4707 82.9117 16.9402C84.202 18.411 86.0812 19.1443 88.0784 19.1443C90.077 19.1443 92.1936 18.4082 93.9534 16.9374C95.7117 15.468 96.7811 13.5416 97.0881 11.6152C97.3964 9.68879 96.9423 7.7624 95.652 6.29157Z" fill="#F9FAFB"/>
<path d="M88.0323 10.2041C88.3379 10.2041 88.6268 10.3166 88.8268 10.5416C89.2212 10.9916 89.1046 11.7208 88.5671 12.1694C88.2962 12.3944 87.9712 12.5069 87.6657 12.5069C87.3601 12.5069 87.0726 12.3944 86.8754 12.1694C86.4809 11.7194 86.5976 10.9902 87.1351 10.5416C87.4032 10.3166 87.7254 10.2041 88.0323 10.2041Z" fill="#F9FAFB"/>
<path d="M86.0088 7.5625C86.6047 7.5625 87.1644 7.78194 87.5491 8.21944C88.3172 9.09444 88.0908 10.5139 87.0436 11.3889C86.5186 11.8278 85.888 12.0472 85.2922 12.0472C84.6977 12.0472 84.138 11.8278 83.7533 11.3903C82.9852 10.5153 83.2116 9.09444 84.2589 8.21806C84.7839 7.78056 85.413 7.5625 86.0088 7.5625Z" fill="#F9FAFB"/>
<path d="M98.6866 3.75418C102.119 7.6639 101.549 13.7625 97.6102 18.107L97.3588 17.8208C97.0505 17.4708 96.6019 17.2958 96.1255 17.2958C95.6491 17.2958 95.1449 17.4708 94.7255 17.8208C93.888 18.5236 93.7061 19.6583 94.3199 20.3611L94.5713 20.6472C92.3449 22.0389 89.8713 22.7361 87.5088 22.7361C84.5588 22.7361 81.7811 21.65 79.8755 19.4778C76.0644 15.1333 77.1866 8.09446 82.3838 3.7514C84.9797 1.58057 88.1019 0.49585 91.0519 0.49585C94.0033 0.49585 96.7811 1.58196 98.6866 3.75418ZM93.9533 16.9375C95.7116 15.4681 96.7811 13.5417 97.088 11.6153C97.3949 9.6889 96.9408 7.76252 95.6505 6.29168C94.3616 4.82224 92.4811 4.08751 90.4824 4.08751C88.4838 4.08751 86.3699 4.82224 84.6116 6.29168C82.8519 7.76252 81.7824 9.69029 81.4741 11.6167C81.1658 13.5445 81.6213 15.4708 82.9102 16.9403C84.2005 18.4111 86.0797 19.1445 88.0769 19.1445C90.0769 19.1458 92.1936 18.4097 93.9533 16.9375Z" fill="#D0D5DD"/>
<path d="M96.1272 17.2971C96.6036 17.2971 97.0522 17.4721 97.3605 17.8221L97.6119 18.1082L102.759 23.9777C103.373 24.6777 103.192 25.8152 102.355 26.5152C101.937 26.8652 101.431 27.0402 100.956 27.0402C100.48 27.0402 100.031 26.8652 99.7244 26.5152L94.5744 20.6485L94.323 20.3624C93.7091 19.6596 93.8897 18.5249 94.7286 17.8221C95.1466 17.4721 95.6508 17.2971 96.1272 17.2971Z" fill="#D0D5DD"/>
</svg>
