<svg width="19" height="18" viewBox="0 0 19 18" fill="none" xmlns="http://www.w3.org/2000/svg">
<path fill-rule="evenodd" clip-rule="evenodd" d="M8.21512 1.27598C8.7487 1.5462 9.18307 1.86249 9.49994 2.12841C9.8168 1.86249 10.2511 1.54621 10.7847 1.27598C11.9938 0.663608 13.734 0.284863 15.691 1.27597C16.9411 1.90908 17.7867 2.86704 18.2472 4.03012C18.7015 5.17757 18.7633 6.4766 18.5446 7.79457C18.172 10.0401 16.6372 12.0438 15.061 13.5876C13.465 15.1507 11.7151 16.3495 10.7282 16.9745C9.9728 17.453 9.0271 17.453 8.27171 16.9745C7.28479 16.3495 5.53485 15.1507 3.93887 13.5876C2.36257 12.0438 0.827764 10.0401 0.455184 7.79457C0.236503 6.4766 0.298229 5.17757 0.75253 4.03012C1.21302 2.86704 2.05866 1.90908 3.30875 1.27597C5.26575 0.284862 7.00598 0.66361 8.21512 1.27598ZM8.86505 3.82124C9.02336 4.00746 9.25548 4.11481 9.49996 4.11481C9.74401 4.11481 9.97574 4.00782 10.134 3.8222C10.1342 3.82199 10.1344 3.82178 10.1346 3.82156C10.1348 3.82131 10.135 3.82106 10.1352 3.82081L10.1479 3.80661C10.1608 3.79222 10.1826 3.76852 10.2128 3.73727C10.2733 3.67464 10.3668 3.58255 10.4899 3.47484C10.738 3.25781 11.0961 2.98653 11.5377 2.76283C12.4052 2.32348 13.5723 2.07118 14.938 2.76283C15.8297 3.21441 16.389 3.8643 16.6976 4.64366C17.0124 5.43866 17.0838 6.41667 16.9004 7.52176C16.6159 9.23658 15.3931 10.9294 13.8948 12.3969C12.4161 13.8451 10.7745 14.9724 9.83642 15.5665C9.62553 15.7001 9.37437 15.7001 9.16348 15.5665C8.22536 14.9724 6.5837 13.8451 5.10506 12.3969C3.60673 10.9294 2.3839 9.23658 2.09937 7.52176C1.91601 6.41667 1.9874 5.43866 2.30216 4.64366C2.61073 3.8643 3.1701 3.21441 4.06176 2.76283C5.42746 2.07118 6.59457 2.32347 7.46211 2.76283C7.90381 2.98653 8.26188 3.25782 8.50998 3.47486C8.63311 3.58256 8.72659 3.67465 8.7871 3.73729C8.8173 3.76853 8.83908 3.79224 8.85205 3.80663L8.86505 3.82124Z" fill="#101928"/>
</svg>
