<svg width="20" height="20" viewBox="0 0 20 20" fill="none" xmlns="http://www.w3.org/2000/svg">
<path d="M11.4089 0.513006C10.5053 0.146706 9.4947 0.146706 8.5911 0.513006L6.40058 1.40106L15.9928 5.13136L19.3671 3.82763C19.2312 3.7149 19.0769 3.62165 18.9075 3.55298L11.4089 0.513006ZM20 5.19118L10.7498 8.7651V19.6883C10.9736 19.6426 11.1943 19.5762 11.4089 19.4892L18.9075 16.4493C19.5679 16.1815 20 15.5401 20 14.8275V5.19118ZM9.2498 19.6882V8.7651L0 5.19134V14.8275C0 15.5401 0.43211 16.1815 1.09252 16.4493L8.5911 19.4892C8.8056 19.5762 9.0261 19.6425 9.2498 19.6882ZM0.63273 3.82774L9.9998 7.44684L13.9168 5.93346L4.37434 2.22251L1.09252 3.55298C0.92308 3.62167 0.76867 3.71496 0.63273 3.82774Z" fill="#36B3A5"/>
</svg>
