<svg width="16" height="20" viewBox="0 0 16 20" fill="none" xmlns="http://www.w3.org/2000/svg">
<path d="M8 6V0H2C0.89543 0 0 0.89543 0 2V18C0 19.1046 0.89543 20 2 20H14C15.1046 20 16 19.1046 16 18V8H10C8.8954 8 8 7.10457 8 6ZM3 10.25C3 9.8358 3.33579 9.5 3.75 9.5C4.16421 9.5 4.5 9.8358 4.5 10.25C4.5 10.6642 4.16421 11 3.75 11C3.33579 11 3 10.6642 3 10.25ZM3 13.25C3 12.8358 3.33579 12.5 3.75 12.5C4.16421 12.5 4.5 12.8358 4.5 13.25C4.5 13.6642 4.16421 14 3.75 14C3.33579 14 3 13.6642 3 13.25ZM3 16.25C3 15.8358 3.33579 15.5 3.75 15.5C4.16421 15.5 4.5 15.8358 4.5 16.25C4.5 16.6642 4.16421 17 3.75 17C3.33579 17 3 16.6642 3 16.25ZM6 10.25C6 9.8358 6.3358 9.5 6.75 9.5H12.25C12.6642 9.5 13 9.8358 13 10.25C13 10.6642 12.6642 11 12.25 11H6.75C6.3358 11 6 10.6642 6 10.25ZM6 13.25C6 12.8358 6.3358 12.5 6.75 12.5H12.25C12.6642 12.5 13 12.8358 13 13.25C13 13.6642 12.6642 14 12.25 14H6.75C6.3358 14 6 13.6642 6 13.25ZM6 16.25C6 15.8358 6.3358 15.5 6.75 15.5H12.25C12.6642 15.5 13 15.8358 13 16.25C13 16.6642 12.6642 17 12.25 17H6.75C6.3358 17 6 16.6642 6 16.25ZM9.5 6V0.5L15.5 6.5H10C9.7239 6.5 9.5 6.27614 9.5 6Z" fill="#36B3A5"/>
</svg>
