<svg width="21" height="21" viewBox="0 0 21 21" fill="none" xmlns="http://www.w3.org/2000/svg">
<path d="M17 11.5007C17 10.8193 17.2726 10.2016 17.7146 9.7507H11C10.0335 9.7507 9.25 8.9672 9.25 8.0007V0.00390625C4.11885 0.136456 0 4.33757 0 9.5007C0 14.5797 3.98572 18.7277 9 18.9877V17.5007C9 16.12 10.1193 15.0007 11.5 15.0007C12.0628 15.0007 12.5822 15.1867 13 15.5005V14.5007C13 13.12 14.1193 12.0007 15.5 12.0007C16.0628 12.0007 16.5822 12.1867 17 12.5005V11.5007ZM10.75 0.0821762V8.0007C10.75 8.1388 10.8619 8.2507 11 8.2507H18.9185C18.3603 4.00378 14.9969 0.640376 10.75 0.0821762ZM19.5 10.001C18.6716 10.001 18 10.6725 18 11.501V19.501C18 20.3294 18.6716 21.001 19.5 21.001C20.3284 21.001 21 20.3294 21 19.501V11.501C21 10.6725 20.3284 10.001 19.5 10.001ZM11.5 16.001C10.6716 16.001 10 16.6726 10 17.501V19.501C10 20.3294 10.6716 21.001 11.5 21.001C12.3284 21.001 13 20.3294 13 19.501V17.501C13 16.6726 12.3284 16.001 11.5 16.001ZM14 14.501C14 13.6725 14.6716 13.001 15.5 13.001C16.3284 13.001 17 13.6725 17 14.501V19.501C17 20.3294 16.3284 21.001 15.5 21.001C14.6716 21.001 14 20.3294 14 19.501V14.501Z" fill="#36B3A5"/>
</svg>
