<svg width="52" height="71" viewBox="0 0 52 71" fill="none" xmlns="http://www.w3.org/2000/svg">
<path d="M4.41312 70.4673C2.5701 71.8015 0 70.4762 0 68.1919V12.1465C0 5.43816 5.40517 0 12.0728 0H39.9272C46.5947 0 52 5.43816 52 12.1465V68.1919C52 70.4762 49.4298 71.8015 47.5869 70.4673L25.9999 54.8416L4.41312 70.4673Z" fill="#0170E3"/>
<path d="M13.598 25V16.324H15.134L17.75 23.488L20.402 16.324H21.932V25H20.786V17.986L18.272 25H17.234L14.738 18.052V25H13.598ZM26.0828 25.12C25.5108 25.12 25.0108 24.998 24.5828 24.754C24.1548 24.506 23.8228 24.144 23.5868 23.668C23.3508 23.192 23.2328 22.61 23.2328 21.922C23.2328 21.274 23.3428 20.706 23.5628 20.218C23.7828 19.73 24.1048 19.352 24.5288 19.084C24.9568 18.812 25.4748 18.676 26.0828 18.676C26.6548 18.676 27.1508 18.802 27.5708 19.054C27.9948 19.302 28.3228 19.668 28.5548 20.152C28.7868 20.636 28.9028 21.226 28.9028 21.922C28.9028 22.554 28.7948 23.11 28.5788 23.59C28.3668 24.07 28.0508 24.446 27.6308 24.718C27.2148 24.986 26.6988 25.12 26.0828 25.12ZM26.0828 24.244C26.4548 24.244 26.7688 24.15 27.0248 23.962C27.2808 23.774 27.4748 23.504 27.6068 23.152C27.7388 22.8 27.8048 22.382 27.8048 21.898C27.8048 21.454 27.7468 21.056 27.6308 20.704C27.5148 20.348 27.3288 20.066 27.0728 19.858C26.8208 19.65 26.4908 19.546 26.0828 19.546C25.7068 19.546 25.3888 19.64 25.1288 19.828C24.8688 20.012 24.6708 20.28 24.5348 20.632C24.4028 20.984 24.3368 21.406 24.3368 21.898C24.3368 22.334 24.3968 22.73 24.5168 23.086C24.6368 23.442 24.8248 23.724 25.0808 23.932C25.3368 24.14 25.6708 24.244 26.0828 24.244ZM32.222 25.12C31.79 25.12 31.388 25.054 31.016 24.922C30.648 24.786 30.342 24.576 30.098 24.292C29.854 24.004 29.7 23.638 29.636 23.194H30.644C30.7 23.438 30.8 23.642 30.944 23.806C31.092 23.966 31.276 24.088 31.496 24.172C31.716 24.252 31.956 24.292 32.216 24.292C32.632 24.292 32.968 24.214 33.224 24.058C33.48 23.902 33.608 23.662 33.608 23.338C33.608 23.11 33.54 22.928 33.404 22.792C33.272 22.652 33.066 22.55 32.786 22.486L31.502 22.168C31.002 22.048 30.602 21.86 30.302 21.604C30.002 21.348 29.852 20.99 29.852 20.53C29.848 20.166 29.934 19.846 30.11 19.57C30.286 19.294 30.55 19.076 30.902 18.916C31.254 18.756 31.692 18.676 32.216 18.676C32.888 18.676 33.43 18.828 33.842 19.132C34.258 19.432 34.474 19.874 34.49 20.458H33.512C33.472 20.162 33.338 19.928 33.11 19.756C32.886 19.58 32.584 19.492 32.204 19.492C31.808 19.492 31.486 19.572 31.238 19.732C30.99 19.888 30.866 20.132 30.866 20.464C30.866 20.684 30.954 20.858 31.13 20.986C31.306 21.11 31.566 21.214 31.91 21.298L33.152 21.61C33.44 21.686 33.676 21.786 33.86 21.91C34.048 22.034 34.196 22.172 34.304 22.324C34.416 22.476 34.494 22.636 34.538 22.804C34.586 22.968 34.61 23.126 34.61 23.278C34.61 23.658 34.514 23.986 34.322 24.262C34.134 24.534 33.862 24.746 33.506 24.898C33.154 25.046 32.726 25.12 32.222 25.12ZM38.8719 19.606H37.4739V23.464C37.4739 23.684 37.4959 23.846 37.5399 23.95C37.5879 24.05 37.6659 24.114 37.7739 24.142C37.8859 24.17 38.0379 24.184 38.2299 24.184H38.9079V24.928C38.8319 24.956 38.7159 24.98 38.5599 25C38.4079 25.02 38.2179 25.03 37.9899 25.03C37.5619 25.03 37.2299 24.972 36.9939 24.856C36.7579 24.74 36.5919 24.568 36.4959 24.34C36.4039 24.112 36.3579 23.832 36.3579 23.5V19.606H35.3499V18.796H36.3879L36.6579 16.99H37.4739V18.79H38.8719V19.606ZM6.49522 40V31.324H9.42922C10.0492 31.324 10.6012 31.428 11.0852 31.636C11.5692 31.844 11.9492 32.152 12.2252 32.56C12.5052 32.968 12.6452 33.47 12.6452 34.066C12.6452 34.642 12.5152 35.134 12.2552 35.542C11.9992 35.95 11.6412 36.26 11.1812 36.472C10.7212 36.684 10.1872 36.79 9.57922 36.79H7.63522V40H6.49522ZM7.62922 35.854H9.55522C10.1512 35.854 10.6352 35.688 11.0072 35.356C11.3792 35.024 11.5652 34.572 11.5652 34C11.5652 33.424 11.3732 32.988 10.9892 32.692C10.6052 32.396 10.1092 32.248 9.50122 32.248H7.62922V35.854ZM15.8863 40.12C15.3143 40.12 14.8143 39.998 14.3863 39.754C13.9583 39.506 13.6263 39.144 13.3903 38.668C13.1543 38.192 13.0363 37.61 13.0363 36.922C13.0363 36.274 13.1463 35.706 13.3663 35.218C13.5863 34.73 13.9083 34.352 14.3323 34.084C14.7603 33.812 15.2783 33.676 15.8863 33.676C16.4583 33.676 16.9543 33.802 17.3743 34.054C17.7983 34.302 18.1263 34.668 18.3583 35.152C18.5903 35.636 18.7063 36.226 18.7063 36.922C18.7063 37.554 18.5983 38.11 18.3823 38.59C18.1703 39.07 17.8543 39.446 17.4343 39.718C17.0183 39.986 16.5023 40.12 15.8863 40.12ZM15.8863 39.244C16.2583 39.244 16.5723 39.15 16.8283 38.962C17.0843 38.774 17.2783 38.504 17.4103 38.152C17.5423 37.8 17.6083 37.382 17.6083 36.898C17.6083 36.454 17.5503 36.056 17.4343 35.704C17.3183 35.348 17.1323 35.066 16.8763 34.858C16.6243 34.65 16.2943 34.546 15.8863 34.546C15.5103 34.546 15.1923 34.64 14.9323 34.828C14.6723 35.012 14.4743 35.28 14.3383 35.632C14.2063 35.984 14.1403 36.406 14.1403 36.898C14.1403 37.334 14.2003 37.73 14.3203 38.086C14.4403 38.442 14.6283 38.724 14.8843 38.932C15.1403 39.14 15.4743 39.244 15.8863 39.244ZM19.8586 41.932V33.796H20.9626L20.9746 34.876C21.0466 34.748 21.1386 34.614 21.2506 34.474C21.3666 34.334 21.5066 34.204 21.6706 34.084C21.8386 33.964 22.0326 33.866 22.2526 33.79C22.4766 33.714 22.7306 33.676 23.0146 33.676C23.5106 33.676 23.9466 33.79 24.3226 34.018C24.7026 34.242 24.9986 34.586 25.2106 35.05C25.4226 35.514 25.5286 36.102 25.5286 36.814C25.5286 37.526 25.4246 38.128 25.2166 38.62C25.0126 39.108 24.7166 39.48 24.3286 39.736C23.9406 39.992 23.4726 40.12 22.9246 40.12C22.6486 40.12 22.4026 40.08 22.1866 40C21.9746 39.924 21.7886 39.824 21.6286 39.7C21.4726 39.572 21.3406 39.436 21.2326 39.292C21.1286 39.148 21.0426 39.01 20.9746 38.878V41.932H19.8586ZM22.7146 39.256C23.2266 39.256 23.6446 39.062 23.9686 38.674C24.2926 38.282 24.4546 37.674 24.4546 36.85C24.4546 36.142 24.3066 35.58 24.0106 35.164C23.7146 34.748 23.2826 34.54 22.7146 34.54C22.1386 34.54 21.7026 34.754 21.4066 35.182C21.1106 35.606 20.9626 36.162 20.9626 36.85C20.9626 37.294 21.0286 37.698 21.1606 38.062C21.2926 38.426 21.4886 38.716 21.7486 38.932C22.0086 39.148 22.3306 39.256 22.7146 39.256ZM28.8699 40.12C28.5459 40.116 28.2399 40.07 27.9519 39.982C27.6679 39.89 27.4159 39.756 27.1959 39.58C26.9759 39.404 26.8019 39.186 26.6739 38.926C26.5499 38.662 26.4879 38.356 26.4879 38.008V33.796H27.5979V37.894C27.5979 38.298 27.7219 38.626 27.9699 38.878C28.2219 39.13 28.5999 39.256 29.1039 39.256C29.5599 39.256 29.9259 39.138 30.2019 38.902C30.4819 38.662 30.6219 38.306 30.6219 37.834V33.796H31.7259V40H30.8439L30.7299 38.812C30.6539 39.124 30.5239 39.376 30.3399 39.568C30.1599 39.76 29.9419 39.902 29.6859 39.994C29.4339 40.082 29.1619 40.124 28.8699 40.12ZM34.7934 40.078C34.4574 40.078 34.1854 40.032 33.9774 39.94C33.7734 39.848 33.6154 39.724 33.5034 39.568C33.3954 39.412 33.3214 39.234 33.2814 39.034C33.2454 38.83 33.2274 38.62 33.2274 38.404V31.084H34.3194V38.296C34.3194 38.608 34.3794 38.842 34.4994 38.998C34.6234 39.154 34.7954 39.24 35.0154 39.256L35.3514 39.262V39.982C35.2594 40.01 35.1634 40.032 35.0634 40.048C34.9634 40.068 34.8734 40.078 34.7934 40.078ZM38.159 40.12C37.759 40.12 37.405 40.05 37.097 39.91C36.789 39.766 36.547 39.56 36.371 39.292C36.199 39.024 36.113 38.7 36.113 38.32C36.113 37.632 36.353 37.12 36.833 36.784C37.313 36.448 38.083 36.268 39.143 36.244L40.253 36.214V35.728C40.253 35.348 40.139 35.048 39.911 34.828C39.683 34.604 39.329 34.492 38.849 34.492C38.493 34.496 38.179 34.58 37.907 34.744C37.639 34.908 37.465 35.176 37.385 35.548H36.407C36.431 35.144 36.545 34.804 36.749 34.528C36.953 34.248 37.237 34.036 37.601 33.892C37.969 33.748 38.403 33.676 38.903 33.676C39.443 33.676 39.891 33.752 40.247 33.904C40.607 34.056 40.875 34.28 41.051 34.576C41.231 34.872 41.321 35.236 41.321 35.668V40H40.373L40.295 38.836C40.055 39.32 39.749 39.656 39.377 39.844C39.009 40.028 38.603 40.12 38.159 40.12ZM38.495 39.322C38.703 39.322 38.909 39.284 39.113 39.208C39.321 39.132 39.511 39.03 39.683 38.902C39.855 38.77 39.991 38.624 40.091 38.464C40.195 38.3 40.249 38.132 40.253 37.96V36.898L39.329 36.916C38.857 36.924 38.461 36.972 38.141 37.06C37.825 37.148 37.587 37.286 37.427 37.474C37.271 37.662 37.193 37.908 37.193 38.212C37.193 38.56 37.313 38.832 37.553 39.028C37.797 39.224 38.111 39.322 38.495 39.322ZM42.9164 40V33.796H43.9724V34.99C44.0764 34.694 44.2224 34.45 44.4104 34.258C44.5984 34.062 44.8124 33.916 45.0524 33.82C45.2964 33.724 45.5484 33.676 45.8084 33.676C45.9004 33.676 45.9904 33.682 46.0784 33.694C46.1664 33.706 46.2344 33.726 46.2824 33.754V34.828C46.2224 34.8 46.1444 34.782 46.0484 34.774C45.9564 34.762 45.8784 34.756 45.8144 34.756C45.5664 34.74 45.3344 34.756 45.1184 34.804C44.9024 34.848 44.7124 34.926 44.5484 35.038C44.3844 35.15 44.2544 35.298 44.1584 35.482C44.0664 35.662 44.0204 35.882 44.0204 36.142V40H42.9164Z" fill="white"/>
</svg>
