<svg width="19" height="21" viewBox="0 0 19 21" fill="none" xmlns="http://www.w3.org/2000/svg">
<path d="M5 4V2.25C5 1.00736 6.00736 0 7.25 0H10.75C11.9926 0 13 1.00736 13 2.25V4H14.75C16.5449 4 18 5.45507 18 7.25V8.75C18 9.3785 17.6687 9.9296 17.1711 10.2382C16.5291 9.4808 15.5707 9 14.5 9C13.3106 9 12.2598 9.5933 11.6273 10.5H11V10C11 9.4477 10.5523 9 10 9H8C7.4477 9 7 9.4477 7 10V10.5H1.75C0.7835 10.5 0 9.7165 0 8.75V7.25C0 5.45507 1.45507 4 3.25 4H5ZM10.75 1.5H7.25C6.83579 1.5 6.5 1.83579 6.5 2.25V4H11.5V2.25C11.5 1.83579 11.1642 1.5 10.75 1.5ZM11.0354 12H11C11 12.5523 10.5523 13 10 13H8C7.4477 13 7 12.5523 7 12H1.75C1.10568 12 0.50515 11.8125 0 11.4891V14.75C0 16.5449 1.45507 18 3.25 18H9.002C9.0007 17.9583 9 17.9167 9 17.875V17.772C9 16.2401 10.2419 15 11.7727 15H12.0505C11.4022 14.3647 11 13.4793 11 12.5C11 12.3302 11.0121 12.1633 11.0354 12ZM17 12.5C17 13.8807 15.8807 15 14.5 15C13.1193 15 12 13.8807 12 12.5C12 11.1193 13.1193 10 14.5 10C15.8807 10 17 11.1193 17 12.5ZM19 17.875C19 19.4315 17.7143 21 14.5 21C11.2857 21 10 19.4374 10 17.875V17.772C10 16.7929 10.7937 16 11.7727 16H17.2273C18.2063 16 19 16.793 19 17.772V17.875Z" fill="#36B3A5"/>
</svg>
