<svg width="14" height="11" viewBox="0 0 14 11" fill="none" xmlns="http://www.w3.org/2000/svg">
<path d="M5.99967 2.33325C4.89511 2.33325 3.99967 3.22869 3.99967 4.33325C3.99967 5.43785 4.89511 6.33325 5.99967 6.33325C7.10427 6.33325 7.99967 5.43785 7.99967 4.33325C7.99967 3.22869 7.10427 2.33325 5.99967 2.33325ZM4.99967 4.33325C4.99967 3.78099 5.44739 3.33325 5.99967 3.33325C6.55194 3.33325 6.99967 3.78099 6.99967 4.33325C6.99967 4.88552 6.55194 5.33325 5.99967 5.33325C5.44739 5.33325 4.99967 4.88552 4.99967 4.33325ZM0.333008 1.83325C0.333008 1.00483 1.00458 0.333252 1.83301 0.333252H10.1663C10.9947 0.333252 11.6663 1.00483 11.6663 1.83325V6.83325C11.6663 7.66165 10.9947 8.33325 10.1663 8.33325H1.83301C1.00458 8.33325 0.333008 7.66165 0.333008 6.83325V1.83325ZM1.83301 1.33325C1.55687 1.33325 1.33301 1.55711 1.33301 1.83325V2.33325H1.83301C2.10915 2.33325 2.33301 2.10939 2.33301 1.83325V1.33325H1.83301ZM1.33301 5.33325H1.83301C2.66143 5.33325 3.33301 6.00485 3.33301 6.83325V7.33325H8.66634V6.83325C8.66634 6.00485 9.33794 5.33325 10.1663 5.33325H10.6663V3.33325H10.1663C9.33794 3.33325 8.66634 2.66168 8.66634 1.83325V1.33325H3.33301V1.83325C3.33301 2.66168 2.66143 3.33325 1.83301 3.33325H1.33301V5.33325ZM10.6663 2.33325V1.83325C10.6663 1.55711 10.4425 1.33325 10.1663 1.33325H9.66634V1.83325C9.66634 2.10939 9.89021 2.33325 10.1663 2.33325H10.6663ZM10.6663 6.33325H10.1663C9.89021 6.33325 9.66634 6.55712 9.66634 6.83325V7.33325H10.1663C10.4425 7.33325 10.6663 7.10939 10.6663 6.83325V6.33325ZM1.33301 6.83325C1.33301 7.10939 1.55687 7.33325 1.83301 7.33325H2.33301V6.83325C2.33301 6.55712 2.10915 6.33325 1.83301 6.33325H1.33301V6.83325ZM1.93392 9.33325C2.27973 9.93105 2.92607 10.3333 3.66635 10.3333H10.4997C12.2486 10.3333 13.6663 8.91552 13.6663 7.16659V3.66659C13.6663 2.92632 13.2641 2.27997 12.6663 1.93417V7.16659C12.6663 8.36319 11.6963 9.33325 10.4997 9.33325H1.93392Z" fill="#008753"/>
</svg>
