<svg width="18" height="18" viewBox="0 0 18 18" fill="none" xmlns="http://www.w3.org/2000/svg">
<path fill-rule="evenodd" clip-rule="evenodd" d="M8.16675 0.666626C4.02461 0.666626 0.666748 4.02449 0.666748 8.16663C0.666748 12.3088 4.02461 15.6666 8.16675 15.6666C9.93759 15.6666 11.5651 15.0529 12.8482 14.0265L15.9108 17.0892C16.2363 17.4147 16.7639 17.4147 17.0893 17.0892C17.4148 16.7638 17.4148 16.2361 17.0893 15.9107L14.0267 12.848C15.053 11.565 15.6667 9.93747 15.6667 8.16663C15.6667 4.02449 12.3089 0.666626 8.16675 0.666626ZM2.33341 8.16663C2.33341 4.94497 4.94509 2.33329 8.16675 2.33329C11.3884 2.33329 14.0001 4.94497 14.0001 8.16663C14.0001 11.3883 11.3884 14 8.16675 14C4.94509 14 2.33341 11.3883 2.33341 8.16663Z" fill="#667185"/>
</svg>
