<svg width="167" height="23" viewBox="0 0 167 23" fill="none" xmlns="http://www.w3.org/2000/svg">
<g opacity="0.5">
<path d="M35.6523 18.0198V17.5879H35.5399L35.4097 17.8843L35.2803 17.5879H35.1675V18.0198H35.2474V17.6944L35.3691 17.9752H35.4519L35.5735 17.6937V18.0198H35.6527H35.6523ZM34.9387 18.0198V17.6619H35.0827V17.589H34.7148V17.6619H34.8588V18.0198H34.938H34.9387Z" fill="#F79410"/>
<path d="M22.8671 19.8727H13.1328V2.37891H22.8673L22.8671 19.8727Z" fill="#FF5F00"/>
<path d="M13.7503 11.1257C13.7503 7.57706 15.4118 4.41594 17.9992 2.37877C16.0407 0.834473 13.6183 -0.00367311 11.1242 1.21007e-05C4.98034 1.21007e-05 0 4.98107 0 11.1257C0 17.2703 4.98034 22.2514 11.1242 22.2514C13.6184 22.2551 16.0408 21.4169 17.9994 19.8726C15.4122 17.8358 13.7503 14.6745 13.7503 11.1257Z" fill="#EB001B"/>
<path d="M36.0003 11.1257C36.0003 17.2703 31.0199 22.2514 24.876 22.2514C22.3816 22.255 19.9589 21.4169 18 19.8726C20.5881 17.8354 22.2496 14.6745 22.2496 11.1257C22.2496 7.57689 20.5881 4.41594 18 2.37877C19.9589 0.834519 22.3815 -0.00360851 24.8759 1.16787e-05C31.0198 1.16787e-05 36.0001 4.98107 36.0001 11.1257" fill="#F79E1B"/>
<path d="M52.7198 3.66602H48.3641C48.2199 3.66592 48.0804 3.71734 47.9707 3.81099C47.8611 3.90464 47.7885 4.03437 47.766 4.17681L46.0044 15.3461C45.9963 15.398 45.9995 15.4509 46.0138 15.5014C46.0282 15.5519 46.0533 15.5986 46.0874 15.6384C46.1215 15.6783 46.1639 15.7102 46.2116 15.7321C46.2593 15.754 46.3111 15.7653 46.3636 15.7652H48.443C48.5873 15.7653 48.7269 15.7138 48.8366 15.62C48.9462 15.5262 49.0188 15.3963 49.0411 15.2538L49.5162 12.2412C49.5385 12.0988 49.611 11.969 49.7205 11.8752C49.83 11.7815 49.9695 11.7299 50.1136 11.7298H51.4925C54.3618 11.7298 56.0177 10.3414 56.4502 7.58996C56.6451 6.38622 56.4584 5.44042 55.8948 4.77804C55.2757 4.0507 54.1777 3.66602 52.7198 3.66602ZM53.2223 7.74536C52.9841 9.30832 51.79 9.30832 50.6353 9.30832H49.978L50.4391 6.3894C50.4526 6.30401 50.4961 6.22623 50.5619 6.17007C50.6276 6.11391 50.7112 6.08305 50.7977 6.08305H51.0989C51.8855 6.08305 52.6275 6.08305 53.0109 6.53143C53.2395 6.79893 53.3096 7.19636 53.2223 7.74536ZM65.74 7.69505H63.6541C63.5677 7.69505 63.4841 7.72591 63.4183 7.78207C63.3526 7.83823 63.3091 7.916 63.2956 8.0014L63.2032 8.5848L63.0574 8.37335C62.6058 7.71798 61.5989 7.49888 60.5938 7.49888C58.2889 7.49888 56.3202 9.24463 55.9368 11.6935C55.7375 12.9151 56.0209 14.0832 56.7138 14.8978C57.3495 15.6468 58.259 15.9588 59.341 15.9588C61.1982 15.9588 62.2281 14.7646 62.2281 14.7646L62.1351 15.3442C62.1268 15.396 62.1299 15.449 62.1441 15.4996C62.1582 15.5501 62.1832 15.597 62.2172 15.6369C62.2512 15.6769 62.2935 15.709 62.3411 15.731C62.3888 15.753 62.4406 15.7645 62.4931 15.7646H64.3719C64.5162 15.7646 64.6558 15.7131 64.7654 15.6194C64.8751 15.5256 64.9476 15.3957 64.97 15.2531L66.0973 8.11413C66.1056 8.06243 66.1026 8.00954 66.0884 7.95912C66.0743 7.9087 66.0494 7.86195 66.0154 7.8221C65.9814 7.78225 65.9392 7.75026 65.8916 7.72832C65.8441 7.70638 65.7924 7.69503 65.74 7.69505ZM62.8325 11.7547C62.6313 12.9463 61.6855 13.7462 60.4792 13.7462C59.8735 13.7462 59.3895 13.552 59.0786 13.1839C58.7704 12.8183 58.6532 12.2979 58.7513 11.7183C58.9392 10.5369 59.9009 9.71084 61.0887 9.71084C61.681 9.71084 62.1625 9.90764 62.4797 10.279C62.7975 10.6541 62.9236 11.1776 62.8325 11.7547ZM76.8488 7.69505H74.7528C74.6539 7.6952 74.5566 7.71948 74.4692 7.76576C74.3819 7.81204 74.3072 7.87893 74.2515 7.96064L71.3606 12.219L70.1352 8.12687C70.0976 8.00206 70.0208 7.89268 69.9162 7.81491C69.8116 7.73714 69.6847 7.69511 69.5544 7.69505H67.4946C67.4368 7.69489 67.3798 7.70855 67.3283 7.73489C67.2769 7.76122 67.2324 7.79947 67.1987 7.84644C67.165 7.89342 67.143 7.94777 67.1346 8.00496C67.1261 8.06216 67.1314 8.12055 67.1501 8.17527L69.4588 14.9506L67.2883 18.0147C67.2497 18.0691 67.2268 18.133 67.2222 18.1994C67.2175 18.2659 67.2312 18.3324 67.2618 18.3916C67.2924 18.4508 67.3386 18.5004 67.3956 18.535C67.4525 18.5697 67.5178 18.588 67.5845 18.588H69.6779C69.7757 18.5881 69.872 18.5645 69.9586 18.5193C70.0453 18.474 70.1196 18.4084 70.1754 18.3281L77.1469 8.26507C77.1847 8.21063 77.2068 8.14688 77.211 8.08074C77.2151 8.0146 77.201 7.94859 77.1703 7.88986C77.1396 7.83113 77.0934 7.78193 77.0368 7.74759C76.9801 7.71325 76.9151 7.69508 76.8488 7.69505Z" fill="#253B80"/>
<path d="M83.7883 3.6647H79.4319C79.2878 3.66476 79.1485 3.71624 79.039 3.80988C78.9294 3.90352 78.8569 4.03316 78.8345 4.17549L77.0728 15.3448C77.0646 15.3966 77.0677 15.4495 77.082 15.4999C77.0962 15.5503 77.1212 15.597 77.1552 15.6369C77.1892 15.6767 77.2315 15.7087 77.279 15.7306C77.3266 15.7525 77.3784 15.7639 77.4308 15.7639H79.6663C79.7671 15.7638 79.8646 15.7276 79.9412 15.662C80.0178 15.5964 80.0685 15.5056 80.0841 15.406L80.5841 12.2399C80.6064 12.0975 80.6788 11.9677 80.7883 11.8739C80.8979 11.7802 81.0373 11.7286 81.1815 11.7285H82.5597C85.4296 11.7285 87.0849 10.3401 87.518 7.58864C87.7135 6.3849 87.5256 5.4391 86.962 4.77673C86.3435 4.04939 85.2462 3.6647 83.7883 3.6647ZM84.2908 7.74405C84.0532 9.307 82.8591 9.307 81.7037 9.307H81.0471L81.5088 6.38809C81.5221 6.30269 81.5654 6.22485 81.6311 6.16865C81.6967 6.11246 81.7804 6.08163 81.8668 6.08174H82.168C82.954 6.08174 83.6966 6.08174 84.08 6.53011C84.3086 6.79761 84.3781 7.19504 84.2908 7.74405ZM96.8078 7.69373H94.7232C94.6368 7.69349 94.5531 7.72428 94.4874 7.7805C94.4218 7.83671 94.3784 7.91463 94.3653 8.00008L94.273 8.58348L94.1265 8.37203C93.6749 7.71666 92.6686 7.49757 91.6636 7.49757C89.3586 7.49757 87.3906 9.24331 87.0072 11.6922C86.8085 12.9138 87.0906 14.0818 87.7836 14.8964C88.4205 15.6454 89.3287 15.9575 90.4108 15.9575C92.268 15.9575 93.2979 14.7633 93.2979 14.7633L93.2049 15.3429C93.1966 15.3948 93.1996 15.4479 93.2139 15.4986C93.2281 15.5492 93.2532 15.5961 93.2874 15.6361C93.3215 15.676 93.364 15.7081 93.4117 15.7301C93.4595 15.752 93.5115 15.7634 93.5641 15.7633H95.4423C95.5865 15.7632 95.7259 15.7116 95.8354 15.6178C95.945 15.5241 96.0174 15.3943 96.0397 15.2518L97.1677 8.11281C97.1757 8.06095 97.1723 8.00796 97.1579 7.9575C97.1435 7.90704 97.1183 7.8603 97.0842 7.82049C97.05 7.78067 97.0076 7.74873 96.9599 7.72685C96.9122 7.70497 96.8603 7.69367 96.8078 7.69373ZM93.9004 11.7533C93.7004 12.945 92.7533 13.7449 91.547 13.7449C90.9426 13.7449 90.4573 13.5507 90.1465 13.1825C89.8382 12.817 89.7223 12.2966 89.8191 11.717C90.0083 10.5356 90.9687 9.70952 92.1565 9.70952C92.7488 9.70952 93.2303 9.90632 93.5475 10.2776C93.8666 10.6528 93.9927 11.1763 93.9004 11.7533ZM99.2669 3.97105L97.4791 15.3448C97.4709 15.3966 97.474 15.4495 97.4883 15.4999C97.5025 15.5503 97.5275 15.597 97.5615 15.6369C97.5955 15.6767 97.6378 15.7087 97.6853 15.7306C97.7329 15.7525 97.7847 15.7639 97.8371 15.7639H99.6344C99.9331 15.7639 100.187 15.5474 100.232 15.2525L101.995 4.08378C102.004 4.03201 102 3.97908 101.986 3.92863C101.972 3.87818 101.947 3.83141 101.913 3.79153C101.879 3.75165 101.837 3.7196 101.789 3.6976C101.742 3.6756 101.69 3.66416 101.637 3.66406H99.6248C99.5384 3.66437 99.4549 3.69543 99.3894 3.75168C99.3238 3.80793 99.2804 3.8857 99.2669 3.97105Z" fill="#179BD7"/>
<path fill-rule="evenodd" clip-rule="evenodd" d="M131.355 19.7489H135.843L138.648 2.51114H134.16L131.355 19.7489ZM123.301 14.3674L127.58 2.51114H132.41L125.27 19.7494H120.594L116.694 4.7733C114.163 3.25305 112 2.80302 112 2.80302L112 2.80257C112 2.80256 112 2.80255 112 2.80255L112.083 2.51067H119.156C121.103 2.51067 121.285 4.06273 121.285 4.06273L122.795 11.8147C122.795 11.8147 122.795 11.8145 122.795 11.814L122.795 11.8152L122.795 11.8143L123.301 14.3674ZM167 19.7489H162.879L162.354 17.1884H156.648L155.713 19.7489H151.034L157.728 3.7953C157.728 3.7953 158.134 2.51068 159.799 2.51068H163.407L167 19.7489ZM160.299 7.20053L157.941 13.6513H161.625L160.299 7.20053ZM152.026 2.95472L151.385 6.65643C149.465 5.5982 145.094 5.34783 145.094 7.2969C145.094 8.0712 146.083 8.60372 147.274 9.24554C149.082 10.2189 151.357 11.4437 151.357 14.1447C151.357 18.4606 146.737 20.0463 143.674 20.0463C140.612 20.0463 138.608 19.0729 138.608 19.0729L139.275 15.2025C141.113 16.6775 146.681 17.0967 146.681 14.7575C146.681 13.7746 145.585 13.1949 144.314 12.5227C142.56 11.5953 140.473 10.4917 140.473 7.9097C140.473 3.17651 145.762 2.20312 147.989 2.20312C150.05 2.20312 152.026 2.95472 152.026 2.95472Z" fill="#E6A540"/>
</g>
</svg>
