<svg width="40" height="40" viewBox="0 0 40 40" fill="none" xmlns="http://www.w3.org/2000/svg">
<g clip-path="url(#clip0_127_19153)">
<path d="M39.9938 19.7462C39.9286 18.4431 39.3566 17.2171 38.3999 16.3299C37.4432 15.4427 36.1776 14.9646 34.8732 14.9977C33.5689 15.0308 32.3292 15.5724 31.4187 16.507C30.5082 17.4415 29.9991 18.695 30 19.9997V28.3331C30 27.891 29.8244 27.4671 29.5119 27.1546C29.1993 26.842 28.7754 26.6664 28.3334 26.6664H11.6667C11.2247 26.6664 10.8007 26.842 10.4882 27.1546C10.1756 27.4671 10 27.891 10 28.3331V19.9997C9.99996 19.0831 9.74791 18.1841 9.27143 17.401C8.79495 16.618 8.11237 15.9809 7.2983 15.5596C6.48422 15.1382 5.56999 14.9488 4.65552 15.012C3.74105 15.0751 2.86154 15.3884 2.11312 15.9177C1.3647 16.4469 0.776167 17.1717 0.411857 18.0129C0.0475467 18.854 -0.0785237 19.7791 0.0474254 20.6871C0.173374 21.595 0.546496 22.4509 1.12601 23.1611C1.70552 23.8713 2.46912 24.4086 3.33334 24.7141V33.3331C3.33334 33.7751 3.50893 34.199 3.8215 34.5116C4.13406 34.8241 4.55798 34.9997 5.00001 34.9997H6.66668V38.3331H10V34.9997H30V38.3331H33.3334V34.9997H35C35.4421 34.9997 35.866 34.8241 36.1786 34.5116C36.4911 34.199 36.6667 33.7751 36.6667 33.3331V24.7141C37.6824 24.3549 38.5549 23.6772 39.1544 22.7821C39.7539 21.887 40.0483 20.8222 39.9938 19.7462Z" fill="#029FAE"/>
<path d="M11.666 19.9993V24.9993H28.3327V19.9993C28.3346 18.5218 28.8264 17.0866 29.7312 15.9184C30.6359 14.7502 31.9025 13.9151 33.3327 13.5437V9.99935C33.3302 7.78997 32.4514 5.6718 30.8892 4.10953C29.3269 2.54727 27.2087 1.6685 24.9993 1.66602H14.9993C12.79 1.6685 10.6718 2.54727 9.10953 4.10953C7.54727 5.6718 6.6685 7.78997 6.66602 9.99935V13.5437C8.09615 13.9151 9.36277 14.7502 10.2675 15.9184C11.1723 17.0866 11.6641 18.5218 11.666 19.9993ZM23.3327 8.33268C23.6623 8.33268 23.9845 8.43043 24.2586 8.61357C24.5327 8.7967 24.7463 9.057 24.8725 9.36154C24.9986 9.66609 25.0316 10.0012 24.9673 10.3245C24.903 10.6478 24.7443 10.9448 24.5112 11.1779C24.2781 11.4109 23.9811 11.5697 23.6578 11.634C23.3345 11.6983 22.9994 11.6653 22.6949 11.5391C22.3903 11.413 22.13 11.1994 21.9469 10.9253C21.7638 10.6512 21.666 10.329 21.666 9.99935C21.666 9.55732 21.8416 9.1334 22.1542 8.82084C22.4667 8.50828 22.8907 8.33268 23.3327 8.33268ZM23.3327 13.3327C23.6623 13.3327 23.9845 13.4304 24.2586 13.6136C24.5327 13.7967 24.7463 14.057 24.8725 14.3615C24.9986 14.6661 25.0316 15.0012 24.9673 15.3245C24.903 15.6478 24.7443 15.9448 24.5112 16.1779C24.2781 16.4109 23.9811 16.5697 23.6578 16.634C23.3345 16.6983 22.9994 16.6653 22.6949 16.5391C22.3903 16.413 22.13 16.1994 21.9469 15.9253C21.7638 15.6512 21.666 15.329 21.666 14.9993C21.666 14.5573 21.8416 14.1334 22.1542 13.8208C22.4667 13.5083 22.8907 13.3327 23.3327 13.3327ZM16.666 8.33268C16.9956 8.33268 17.3179 8.43043 17.592 8.61357C17.866 8.7967 18.0797 9.057 18.2058 9.36154C18.332 9.66609 18.365 10.0012 18.3007 10.3245C18.2363 10.6478 18.0776 10.9448 17.8445 11.1779C17.6114 11.4109 17.3145 11.5697 16.9912 11.634C16.6679 11.6983 16.3328 11.6653 16.0282 11.5391C15.7237 11.413 15.4634 11.1994 15.2802 10.9253C15.0971 10.6512 14.9993 10.329 14.9993 9.99935C14.9993 9.55732 15.1749 9.1334 15.4875 8.82084C15.8001 8.50828 16.224 8.33268 16.666 8.33268ZM16.666 13.3327C16.9956 13.3327 17.3179 13.4304 17.592 13.6136C17.866 13.7967 18.0797 14.057 18.2058 14.3615C18.332 14.6661 18.365 15.0012 18.3007 15.3245C18.2363 15.6478 18.0776 15.9448 17.8445 16.1779C17.6114 16.4109 17.3145 16.5697 16.9912 16.634C16.6679 16.6983 16.3328 16.6653 16.0282 16.5391C15.7237 16.413 15.4634 16.1994 15.2802 15.9253C15.0971 15.6512 14.9993 15.329 14.9993 14.9993C14.9993 14.5573 15.1749 14.1334 15.4875 13.8208C15.8001 13.5083 16.224 13.3327 16.666 13.3327Z" fill="#029FAE"/>
</g>
<defs>
<clipPath id="clip0_127_19153">
<rect width="40" height="40" fill="white"/>
</clipPath>
</defs>
</svg>
